<?xml version="1.0" encoding="UTF-8"?>
<svg version="1.1" xmlns="http://www.w3.org/2000/svg" width="500" height="500">
<path d="M0 0 C1.15027679 -0.00642769 1.15027679 -0.00642769 2.3237915 -0.01298523 C3.94078591 -0.01870491 5.55780603 -0.01924628 7.17480469 -0.01489258 C9.61959993 -0.01174581 12.06316766 -0.0351742 14.5078125 -0.06054688 C27.95823488 -0.11626798 39.63245534 1.67421156 49.93359375 11.1875 C57.50133961 19.4006826 60.25544067 27.55442153 60.10546875 38.65234375 C59.2913712 48.68794629 54.86834605 56.72599935 47.640625 63.55078125 C41.0212543 69.17558874 33.63053735 72.45163437 24.90625 72.3984375 C23.97167969 72.39521484 23.03710938 72.39199219 22.07421875 72.38867188 C21.10613281 72.38029297 20.13804688 72.37191406 19.140625 72.36328125 C18.15707031 72.35876953 17.17351563 72.35425781 16.16015625 72.34960938 C13.73691709 72.33784608 11.31380227 72.32140809 8.890625 72.30078125 C8.94283203 74.14542969 8.94283203 74.14542969 8.99609375 76.02734375 C9.02424545 77.66014252 9.05154413 79.29295615 9.078125 80.92578125 C9.10326172 81.73402344 9.12839844 82.54226562 9.15429688 83.375 C9.21615795 88.44760775 8.75427253 91.92426332 5.890625 96.30078125 C1.45526819 99.39521623 -2.81634015 100.04527363 -8.109375 99.30078125 C-10.86475435 98.60519625 -12.58399177 97.76550352 -15.109375 96.30078125 C-17.4555865 92.10369691 -17.39954163 87.89608358 -17.3840332 83.20922852 C-17.38914413 82.40858978 -17.39425507 81.60795105 -17.39952087 80.78305054 C-17.41338673 78.14435285 -17.41246243 75.50591722 -17.41015625 72.8671875 C-17.41404473 71.02782596 -17.41837972 69.18846532 -17.42314148 67.34910583 C-17.43059714 63.49662361 -17.43031707 59.64423304 -17.42504883 55.79174805 C-17.41925398 50.86104521 -17.43618871 45.93071799 -17.4593935 41.00007725 C-17.47414282 37.20218217 -17.47500093 33.40437731 -17.47188377 29.60645866 C-17.47239635 27.7888305 -17.47762207 25.9711972 -17.48769569 24.15359688 C-17.50006657 21.60939414 -17.49326485 19.06592006 -17.48168945 16.52172852 C-17.48933319 15.7750441 -17.49697693 15.02835968 -17.50485229 14.25904846 C-17.45760851 9.5483719 -16.65333393 6.27846886 -14.109375 2.30078125 C-9.58536567 0.01199511 -4.97939631 -0.00625865 0 0 Z M8.890625 25.30078125 C8.560625 32.56078125 8.230625 39.82078125 7.890625 47.30078125 C10.9225 47.36265625 13.954375 47.42453125 17.078125 47.48828125 C18.02453857 47.51559326 18.97095215 47.54290527 19.94604492 47.57104492 C25.89164136 47.62973725 29.31726679 46.78540297 33.703125 42.55078125 C35.41930826 39.29906561 35.27224588 36.92617963 34.890625 33.30078125 C33.45711322 29.59051545 32.33569417 28.53511691 28.796875 26.671875 C24.65101486 24.98045427 20.87234678 24.9568527 16.453125 25.11328125 C13.9575 25.17515625 11.461875 25.23703125 8.890625 25.30078125 Z " fill="#E7712B" transform="translate(38.109375,166.69921875)"/>
<path d="M0 0 C0.66 0.33 1.32 0.66 2 1 C2.53625 0.175 3.0725 -0.65 3.625 -1.5 C6.68279182 -4.61097081 9.84893779 -4.46165512 14.0625 -4.5625 C20.26964363 -4.56912449 20.26964363 -4.56912449 23.37109375 -2.15234375 C26.00505883 1.32802737 26.12869431 4.17196123 26.14526367 8.40185547 C26.15164352 9.50665253 26.15802338 10.61144958 26.16459656 11.74972534 C26.16570938 12.94348785 26.1668222 14.13725037 26.16796875 15.3671875 C26.17296135 17.20750046 26.17296135 17.20750046 26.17805481 19.08499146 C26.1831216 21.68247095 26.18546321 24.27995697 26.18530273 26.87744141 C26.18748736 30.8519972 26.20564092 34.82627466 26.22460938 38.80078125 C26.2275437 41.32291572 26.22952823 43.8450515 26.23046875 46.3671875 C26.23765427 47.55690155 26.24483978 48.7466156 26.25224304 49.97238159 C26.24916641 51.08348297 26.24608978 52.19458435 26.24291992 53.33935547 C26.24434494 54.31403778 26.24576996 55.28872009 26.24723816 56.29293823 C25.97672315 59.25486304 25.36296091 61.35944396 24 64 C20.34422573 66.43718285 18.41330098 66.29880388 14.0625 66.3125 C12.22365234 66.33763672 12.22365234 66.33763672 10.34765625 66.36328125 C6.8525827 65.98400256 5.424714 65.49763773 3 63 C3 62.34 3 61.68 3 61 C2.42894531 61.3609375 1.85789062 61.721875 1.26953125 62.09375 C-6.48108188 66.529713 -13.78209618 67.55689349 -22.51171875 65.37109375 C-32.09399846 61.64186447 -38.86984876 54.2389327 -43 45 C-43.36222656 44.26265625 -43.72445313 43.5253125 -44.09765625 42.765625 C-46.89137857 34.20304749 -46.26220837 23.35149113 -42.375 15.3125 C-41.30476801 13.50803909 -40.18380937 11.73207132 -39 10 C-38.54367187 9.31550781 -38.08734375 8.63101563 -37.6171875 7.92578125 C-28.52640589 -4.04807681 -12.82848148 -8.00574408 0 0 Z M-18 23 C-20.35943675 25.92895597 -20.96835188 27.74681503 -21.4375 31.5 C-20.92294074 35.61647408 -19.94725418 37.13461399 -17 40 C-13.73453379 42.28582634 -10.92568648 42.40058025 -7 42 C-3.58789419 40.57167664 -2.21546312 39.31601258 -0.125 36.25 C1.26442204 32.23611411 1.18482882 30.07284906 0 26 C-3.02507591 22.43196175 -5.09019356 20.16976057 -9.8125 19.75 C-13.47677686 20.03739426 -15.1210833 20.74355178 -18 23 Z " fill="#16235A" transform="translate(432,199)"/>
<path d="M0 0 C1.81229608 -0.00461298 3.62458841 -0.01096856 5.43687296 -0.01890898 C10.40036672 -0.03557086 15.36355192 -0.02737017 20.32704663 -0.0149641 C25.68636977 -0.0059031 31.04564035 -0.01988856 36.404953 -0.03088379 C46.89730986 -0.04866234 57.38955221 -0.04483195 67.88191354 -0.03323323 C76.40991745 -0.02419659 84.93788928 -0.02297591 93.46589661 -0.02732849 C94.68003806 -0.02794142 95.89417952 -0.02855436 97.14511314 -0.02918586 C99.6116835 -0.03046477 102.07825384 -0.03176163 104.54482418 -0.03307623 C127.66926086 -0.04448008 150.79363409 -0.03137134 173.91806036 -0.00987476 C193.75623705 0.00799602 213.59432012 0.00489186 233.43249512 -0.0135498 C256.47466559 -0.03495992 279.51678046 -0.04338146 302.55895948 -0.03110075 C305.01641304 -0.02982656 307.47386661 -0.02856908 309.93132019 -0.02732849 C311.7449513 -0.02640284 311.7449513 -0.02640284 313.59522143 -0.02545848 C322.11214464 -0.02200602 330.62903257 -0.02783172 339.14595032 -0.0372467 C349.52643347 -0.0484696 359.90679564 -0.04542041 370.28726494 -0.02412373 C375.58268779 -0.01361734 380.87790899 -0.00948463 386.17333031 -0.02272034 C391.0229373 -0.03465835 395.87215614 -0.02805825 400.72172803 -0.00681013 C402.47394687 -0.00235007 404.22619865 -0.00459691 405.97839624 -0.01431328 C416.15994014 -0.06643187 425.4774636 -0.02805504 433.81970215 6.58605957 C439.51641975 13.39761868 443.45096232 20.32225183 443.1986084 29.50793457 C441.86510156 37.61254894 438.40833771 44.20491619 431.91345215 49.30090332 C426.13781011 53.25463551 421.97413888 54.65698901 414.9701376 54.64494896 C413.85258005 54.6489267 413.85258005 54.6489267 412.71244559 54.6529848 C410.19597474 54.66069291 407.67955256 54.66123755 405.16307068 54.66183472 C403.34857052 54.66584835 401.53407126 54.67028641 399.71957308 54.67511427 C394.71756386 54.68709679 389.7155643 54.69273212 384.71354353 54.69729543 C379.32480015 54.7032452 373.93606835 54.71485664 368.54733276 54.72558594 C355.52506587 54.75012478 342.50279514 54.76473952 329.48051223 54.77764601 C325.80344697 54.78135694 322.1263821 54.78533025 318.44931722 54.78939867 C295.623734 54.8146348 272.7981502 54.83669173 249.97255611 54.84912682 C244.68373042 54.8520566 239.39490475 54.85501825 234.1060791 54.85803223 C232.13426684 54.8591513 232.13426684 54.8591513 230.12261999 54.86029299 C208.82554896 54.87294788 187.52858074 54.90617181 166.2315449 54.94783406 C144.37470122 54.99024149 122.51790029 55.01382051 100.66101557 55.01904738 C88.38582514 55.0224629 76.11076513 55.03423481 63.83561516 55.06715012 C53.38177079 55.09513539 42.92808357 55.1061566 32.47420465 55.09495465 C27.14029251 55.08976411 21.80670952 55.0926808 16.47284508 55.1174202 C11.58775639 55.13988895 6.70323377 55.13919106 1.81813533 55.12021632 C0.05290968 55.117413 -1.71235415 55.1230333 -3.47751833 55.13802926 C-14.34277604 55.22467511 -22.83453246 54.55344046 -31.4576416 47.26184082 C-32.0660791 46.53867676 -32.6745166 45.8155127 -33.3013916 45.07043457 C-33.9304541 44.34984863 -34.5595166 43.6292627 -35.2076416 42.88684082 C-39.77497842 36.06941895 -39.50333983 28.41595892 -38.8013916 20.50793457 C-37.13753151 13.71300892 -33.28410752 8.73591847 -27.8013916 4.50793457 C-19.19809621 -0.67341936 -9.67167432 -0.05363183 0 0 Z M-30.6138916 12.19543457 C-34.9163657 18.71060964 -36.58586977 25.36454434 -35.43029785 33.12512207 C-33.60207078 40.05194513 -29.43782414 44.25729944 -23.76623535 48.37902832 C-19.54455178 50.80460795 -15.24884199 50.65156485 -10.49113846 50.63936234 C-9.74941218 50.64141497 -9.0076859 50.6434676 -8.24348307 50.64558244 C-5.74431641 50.65126174 -3.2452047 50.64979404 -0.74603271 50.64837646 C1.05838117 50.65095956 2.86279448 50.65397257 4.667207 50.65737987 C9.63661689 50.66545955 14.60601233 50.66723998 19.57542801 50.66797733 C24.93071125 50.6698262 30.28598697 50.67737267 35.64126587 50.68411255 C47.35606756 50.69770309 59.07086583 50.70372166 70.7856741 50.70812321 C78.09789287 50.71088431 85.41011031 50.71512141 92.72232819 50.71962738 C112.96053866 50.73182079 133.19874806 50.74212009 153.43696213 50.74550247 C154.73262288 50.74572204 156.02828362 50.7459416 157.36320682 50.74616782 C158.66199796 50.7463861 159.96078911 50.74660438 161.29893756 50.74682927 C163.93085909 50.74727274 166.56278062 50.7477193 169.19470215 50.74816895 C170.50023093 50.74839038 171.80575971 50.7486118 173.15084997 50.74883994 C194.31014814 50.75278886 215.4694119 50.77024541 236.62869677 50.79352847 C258.3431817 50.81722996 280.05764934 50.82970377 301.77214742 50.83087039 C313.9678556 50.83178781 326.16351894 50.8375569 338.35921478 50.85569 C348.74316592 50.87107473 359.12705836 50.87622106 369.51101872 50.8679519 C374.81017912 50.86403969 380.10922124 50.86500289 385.40836716 50.87900925 C390.25927076 50.89171373 395.10996677 50.89058102 399.96086994 50.87841853 C401.71593018 50.87645555 403.47100495 50.87956763 405.22604474 50.8882629 C407.61261176 50.89933859 409.99844396 50.8918789 412.38499069 50.87987137 C413.4058064 50.89126416 413.4058064 50.89126416 414.44724464 50.90288711 C420.97209065 50.83207096 426.09936389 48.92088761 431.4486084 45.32043457 C436.61964722 40.03187214 438.4373794 35.5699521 438.7611084 28.13293457 C438.52250313 21.69804883 437.2181252 16.61530225 433.1986084 11.50793457 C427.34110368 6.559353 422.66328449 4.35795989 415.07198143 4.37092018 C414.32580934 4.36826835 413.57963726 4.36561653 412.8108539 4.36288434 C410.28452452 4.35516158 407.7582435 4.35463104 405.23190308 4.35403442 C403.41271579 4.35002175 401.59352939 4.34558386 399.77434409 4.34075487 C394.75481272 4.3287616 389.73529097 4.32313455 384.71574807 4.31857371 C379.30998364 4.31262799 373.90423077 4.30101555 368.49847412 4.2902832 C355.43278908 4.26573498 342.36710019 4.25112822 329.30139917 4.23822314 C325.61275977 4.23451288 321.92412076 4.23053951 318.23548174 4.22647047 C295.34362887 4.20123494 272.45177544 4.17917552 249.55991173 4.16674232 C244.25474419 4.16381248 238.94957667 4.16085084 233.64440918 4.15783691 C232.32578694 4.15709086 231.00716469 4.15634481 229.6485842 4.15557615 C208.28220383 4.1431278 186.91591136 4.10969369 165.54956941 4.06803508 C143.62722633 4.02564185 121.70492585 4.00205027 99.78254187 3.99682176 C87.46827659 3.99340461 75.15414123 3.98161364 62.83991623 3.94871902 C52.35341854 3.92075321 41.8670774 3.90970394 31.3805453 3.92091449 C26.02866099 3.92611005 20.6771047 3.92315592 15.32526779 3.89844894 C10.4260576 3.87602006 5.52741228 3.87664688 0.62819262 3.89565282 C-1.14442967 3.89846176 -2.91708974 3.89280479 -4.68965109 3.87783988 C-15.62042141 3.79119721 -22.48386666 4.42674407 -30.6138916 12.19543457 Z " fill="#D8875E" transform="translate(51.8013916015625,306.4920654296875)"/>
<path d="M0 0 C4.96725213 4.02014929 8.72926817 9.31280451 10.75 15.375 C10.95017082 17.99723774 11.07264877 20.56279958 11.125 23.1875 C11.18107422 24.23647461 11.18107422 24.23647461 11.23828125 25.30664062 C11.30683191 29.37778799 10.89897934 31.13758162 8.6640625 34.69921875 C3.27116913 39.65113827 -1.52304294 40.75749324 -8.71484375 40.66796875 C-9.73210289 40.66160149 -9.73210289 40.66160149 -10.76991272 40.65510559 C-12.90953402 40.63847941 -15.04816947 40.60086174 -17.1875 40.5625 C-18.64907482 40.54743222 -20.11066458 40.5337475 -21.57226562 40.52148438 C-25.13182397 40.48862977 -28.69081556 40.43696241 -32.25 40.375 C-28.98398011 43.77970439 -26.96554566 45.43189087 -22.25 46.375 C-16.21205396 46.29401414 -10.94626014 45.36206749 -5.25 43.375 C-2.1875 42.9375 -2.1875 42.9375 0.75 43.375 C5.4162827 47.08681579 7.32156107 50.49833864 8.1875 56.3125 C7.59999007 60.42506952 5.95197454 62.85809908 2.75 65.375 C-2.56759316 67.98324912 -8.36767764 69.03264261 -14.25 69.375 C-15.15621094 69.42785156 -16.06242187 69.48070312 -16.99609375 69.53515625 C-29.61775443 69.91265715 -39.75187134 67.14603739 -49.18359375 58.62890625 C-56.50728408 51.05321797 -59.71368196 42.22746206 -59.8125 31.8125 C-59.58002495 20.4837157 -56.53160106 12.73963865 -48.53515625 4.53515625 C-35.73677609 -7.56314157 -14.97185492 -10.16956183 0 0 Z M-31.25 21.375 C-31.97114735 23.01882746 -32.64714591 24.68420458 -33.25 26.375 C-30.29160645 26.40189449 -27.33345573 26.42178741 -24.375 26.4375 C-23.53324219 26.44587891 -22.69148438 26.45425781 -21.82421875 26.46289062 C-21.01855469 26.46611328 -20.21289062 26.46933594 -19.3828125 26.47265625 C-18.63918457 26.47789307 -17.89555664 26.48312988 -17.12939453 26.48852539 C-15.15867432 26.49286636 -15.15867432 26.49286636 -13.25 25.375 C-12.90871455 21.8061656 -12.90871455 21.8061656 -14.4921875 18.734375 C-17.24500892 16.60552644 -19.58834862 16.90259555 -22.9609375 17.0234375 C-26.52508938 17.57083284 -28.60233035 18.98563958 -31.25 21.375 Z " fill="#E5732C" transform="translate(162.25,198.625)"/>
<path d="M0 0 C8.13441726 5.81029804 12.78953016 14.20913001 14.72265625 23.9453125 C16.1021622 35.07649843 13.92846812 44.25707129 7.1875 53.25 C0.07225407 61.76183345 -7.73019406 66.18106836 -18.8125 67.25 C-30.04991571 67.77065247 -39.65748064 64.31143888 -48.296875 57.20703125 C-55.70256042 49.56469798 -59.25228226 40.61412255 -59.3125 30.0625 C-59.03484117 18.14968049 -55.30357164 10.56664745 -46.77734375 2.26953125 C-32.68433152 -9.72615429 -15.29191616 -9.35926641 0 0 Z M-31.8125 21.25 C-34.39096656 25.63339316 -35.48254768 29.33793127 -34.5703125 34.31640625 C-33.06565519 38.15560919 -30.44061762 40.40896634 -26.8125 42.25 C-22.47011141 43.14663655 -19.01838636 42.7480835 -14.9375 41.0625 C-11.93855355 38.50457509 -10.11885563 36.31894964 -9.52734375 32.32421875 C-9.33284578 27.83385262 -9.85999345 24.81336997 -12.8125 21.25 C-16.5466814 18.06496293 -19.92747858 17.77595426 -24.6640625 17.97265625 C-27.79432907 18.37674521 -29.47226627 19.11625748 -31.8125 21.25 Z " fill="#17235A" transform="translate(305.8125,199.75)"/>
<path d="M0 0 C2.76481645 2.85121696 3.12479646 4.34140272 3.09765625 8.1953125 C3.09443359 9.00097656 3.09121094 9.80664062 3.08789062 10.63671875 C3.07532227 11.89935547 3.07532227 11.89935547 3.0625 13.1875 C3.05798828 14.03699219 3.05347656 14.88648438 3.04882812 15.76171875 C3.03702874 17.86200909 3.01909306 19.9622633 3 22.0625 C4.299375 21.835625 5.59875 21.60875 6.9375 21.375 C12.08339183 20.84659089 16.6004419 21.13248502 21 24.0625 C24.14255921 28.54512951 24.27093459 33.1667979 23.4375 38.4375 C22.82196092 41.44362111 22.3881698 42.71019805 20.09765625 44.7890625 C14.55480882 48.15399409 9.13416138 47.28933228 3 46.0625 C3.495 57.4475 3.495 57.4475 4 69.0625 C6.97 69.0625 9.94 69.0625 13 69.0625 C16.23051382 70.36845239 17.52898085 71.27746808 19.3125 74.25 C20.58344502 79.44932052 20.5870509 83.47746258 18.75 88.4375 C16.85355863 91.28216206 16.11864687 91.88898855 13 93.0625 C3.54839641 94.04864292 -6.1175182 93.3542234 -13.875 87.4375 C-19.70747208 81.90765619 -21.8489495 74.2853615 -22.07617188 66.42871094 C-22.09835971 63.34762737 -22.08716363 60.26855602 -22.0625 57.1875 C-22.05798828 56.11757812 -22.05347656 55.04765625 -22.04882812 53.9453125 C-22.03709749 51.31765014 -22.02068228 48.69010462 -22 46.0625 C-23.10601562 46.08957031 -24.21203125 46.11664063 -25.3515625 46.14453125 C-29.20594553 46.05786953 -30.3796805 45.78360102 -33 43.0625 C-34.92809904 37.27820289 -34.77786652 31.11323901 -32.625 25.4375 C-31 23.0625 -31 23.0625 -29 22.0625 C-26.6670134 22.02227609 -24.33293334 22.01929753 -22 22.0625 C-22.05220703 20.32613281 -22.05220703 20.32613281 -22.10546875 18.5546875 C-22.13362207 17.0156396 -22.16092056 15.47657589 -22.1875 13.9375 C-22.21263672 13.17695313 -22.23777344 12.41640625 -22.26367188 11.6328125 C-22.32741536 6.70331601 -21.81295673 3.29825155 -19 -0.9375 C-12.67731503 -3.84593509 -5.85405683 -3.78074504 0 0 Z " fill="#E6722B" transform="translate(211,172.9375)"/>
<path d="M0 0 C3.00038966 4.5005845 2.68858047 8.72805581 2 14 C0.85800048 17.21697187 -0.49711241 19.6593944 -3 22 C-7.00357819 23.17346257 -9.05478286 23.31507238 -13 22 C-15.1493882 21.72998954 -15.1493882 21.72998954 -17.4375 21.6875 C-18.19933594 21.65011719 -18.96117187 21.61273438 -19.74609375 21.57421875 C-22.98046857 22.1852185 -23.98844344 23.41375006 -26 26 C-26.61086991 29.46135314 -26.61086991 29.46135314 -26.5390625 33.36328125 C-26.55085541 34.07348923 -26.56264832 34.7836972 -26.57479858 35.51542664 C-26.61001384 37.78134062 -26.61921712 40.0463351 -26.625 42.3125 C-26.64142059 44.56767452 -26.66366544 46.82244328 -26.69662476 49.07743835 C-26.71602311 50.47757076 -26.72561518 51.87788722 -26.72354126 53.27815247 C-26.77237401 57.82005714 -27.41185656 61.73944247 -29 66 C-34.73243291 69.82162194 -40.54052758 69.17646739 -47.01953125 67.9609375 C-49.87684764 66.5745473 -50.59274201 64.81301233 -52 62 C-52.3742218 59.26843262 -52.3742218 59.26843262 -52.37231445 56.27929688 C-52.37854324 55.15463013 -52.38477203 54.02996338 -52.39118958 52.87121582 C-52.38197983 51.6659021 -52.37277008 50.46058838 -52.36328125 49.21875 C-52.36377975 47.97250854 -52.36427826 46.72626709 -52.36479187 45.44226074 C-52.36185524 42.1363625 -52.34485268 38.83089656 -52.3225708 35.52508545 C-52.31250913 33.50183554 -52.31218807 31.47883568 -52.31567383 29.45556641 C-52.32208926 25.56401362 -52.31416204 21.6727805 -52.30078125 17.78125 C-52.30169266 16.57593628 -52.30260406 15.37062256 -52.30354309 14.12878418 C-52.29401108 13.00411743 -52.28447906 11.87945068 -52.2746582 10.72070312 C-52.27005081 9.73428833 -52.26544342 8.74787354 -52.26069641 7.73156738 C-51.98052561 4.7959481 -51.2959844 2.64102849 -50 0 C-45.31611867 -3.48641846 -38.50362305 -2.70244507 -33 -2 C-30.28790232 -0.60756345 -29.03730334 0.67165333 -27 3 C-26.52949219 2.65066406 -26.05898438 2.30132812 -25.57421875 1.94140625 C-24.95160156 1.48636719 -24.32898438 1.03132812 -23.6875 0.5625 C-23.07261719 0.11003906 -22.45773437 -0.34242188 -21.82421875 -0.80859375 C-15.04533068 -5.23591893 -6.80491776 -3.2233821 0 0 Z " fill="#172359" transform="translate(380,197)"/>
<path d="M0 0 C0.99742977 -0.00256327 1.99485955 -0.00512655 3.02251446 -0.0077675 C6.36218986 -0.01270592 9.70141244 0.0037889 13.04104614 0.02018738 C15.43598927 0.02103364 17.83093318 0.02055854 20.22587585 0.01885986 C26.05248391 0.01808787 31.87894384 0.03109244 37.70551805 0.05017284 C44.48666971 0.07163581 51.26780045 0.07610985 58.04898132 0.07953735 C70.14158237 0.0860993 82.23412263 0.10605347 94.32669067 0.13444519 C106.07180477 0.16199242 117.81690234 0.18322275 129.56204224 0.19596863 C130.64843761 0.19715088 130.64843761 0.19715088 131.75678037 0.19835702 C135.39028578 0.2022722 139.0237913 0.20606331 142.6572969 0.20979273 C172.78932491 0.24088063 202.92128193 0.29393281 233.05325317 0.36076355 C233.05325317 0.69076355 233.05325317 1.02076355 233.05325317 1.36076355 C221.45666361 2.15555383 209.92020209 2.51947426 198.29812622 2.55021667 C196.59363107 2.5581884 194.88913784 2.56657848 193.18464661 2.5753479 C189.54491948 2.59323554 185.90519611 2.60831196 182.26544762 2.62112427 C176.45932267 2.64167364 170.65324326 2.66928877 164.84715271 2.69779968 C153.52195342 2.75250805 142.19673141 2.80068284 130.87149811 2.84774017 C116.55687352 2.90728662 102.24226242 2.96862406 87.92768317 3.03831244 C83.12547264 3.06149093 78.32326784 3.08308144 73.52103233 3.10040283 C63.74762329 3.13604647 53.97473924 3.18807169 44.20172411 3.28497267 C39.4802394 3.33177369 34.75896909 3.36895351 30.0372963 3.39070129 C24.95649012 3.41542676 19.87647767 3.46593382 14.79606211 3.53308964 C12.8619669 3.55467284 10.92775776 3.56790248 8.99354684 3.57217312 C6.30993151 3.57965058 3.628378 3.61805867 0.94517517 3.66362 C0.16090373 3.65879766 -0.62336771 3.65397532 -1.43140495 3.64900684 C-8.46926551 3.82653306 -13.21389268 6.77563125 -18.25924683 11.54826355 C-22.11060239 17.96718949 -23.67682843 24.53829569 -22.57955933 31.9740448 C-20.86008619 38.45921817 -17.15370633 42.73015604 -11.69284058 46.4506073 C-8.27739297 48.23091891 -5.0070374 48.48688421 -1.19964504 48.49663544 C0.23642482 48.50392205 0.23642482 48.50392205 1.7015062 48.51135588 C3.2753691 48.51179986 3.2753691 48.51179986 4.88102722 48.51225281 C5.99846186 48.51648522 7.11589649 48.52071763 8.26719278 48.5250783 C12.02799353 48.53813701 15.78877303 48.54413753 19.54959106 48.55021667 C22.24259678 48.55815892 24.93559848 48.56649717 27.62860107 48.5753479 C33.4468185 48.59372042 39.26503638 48.60856162 45.08326912 48.62112427 C53.55969465 48.63950798 62.03609327 48.66418318 70.51249748 48.69049817 C84.34988555 48.73336316 98.18728142 48.77241948 112.02468872 48.80851746 C112.85329438 48.81068026 113.68190004 48.81284306 114.53561496 48.8150714 C118.72504225 48.82599404 122.91446965 48.83687516 127.10389709 48.84774017 C135.373068 48.86920392 143.64223805 48.8909824 151.91140747 48.91300964 C153.12777257 48.91624795 153.12777257 48.91624795 154.3687107 48.91955167 C168.08861189 48.95618797 181.80850156 48.99620655 195.52838701 49.03831244 C203.19458496 49.06168966 210.86077989 49.08333887 218.52699471 49.10040283 C249.07054608 49.16887277 279.60868234 49.32301267 310.14871216 49.81584167 C312.0324083 49.84459586 312.0324083 49.84459586 313.9541589 49.87393093 C317.4843599 49.92913518 321.01439312 49.99048634 324.54444885 50.054245 C325.5687391 50.0700678 326.59302935 50.0858906 327.6483587 50.10219288 C333.82789321 50.22410854 339.91392431 50.64461284 346.05325317 51.36076355 C346.05325317 51.69076355 346.05325317 52.02076355 346.05325317 52.36076355 C308.44835198 52.48917462 270.84344773 52.6166568 233.23853935 52.74294582 C228.76784172 52.75796059 224.29714412 52.77298281 219.82644653 52.78800964 C218.49176479 52.79249557 218.49176479 52.79249557 217.13011978 52.79707211 C202.84768239 52.84509363 188.56524711 52.89371445 174.28281256 52.94256896 C159.5551168 52.99293272 144.82741887 53.0426242 130.09971887 53.09173059 C121.85802924 53.11922901 113.61634086 53.14702716 105.37465477 53.17556763 C103.7822943 53.18104945 102.18993383 53.1865288 100.59757334 53.19200563 C97.46785824 53.20277108 94.33814387 53.21372322 91.20842975 53.22476912 C83.73950305 53.25074936 76.27059977 53.27278072 68.8016386 53.28583527 C65.96643209 53.29113109 63.13122621 53.29669743 60.29602051 53.30241394 C59.26467366 53.3043917 59.26467366 53.3043917 58.21249152 53.30640942 C49.60449288 53.32443593 40.99814747 53.38649198 32.39079422 53.50146341 C27.61339899 53.56352148 22.83592371 53.60779405 18.05831587 53.6498785 C15.88200836 53.67416803 13.70577817 53.70739894 11.52976263 53.75053501 C-10.06873869 54.17672631 -10.06873869 54.17672631 -19.60299683 46.1146698 C-20.21143433 45.39150574 -20.81987183 44.66834167 -21.44674683 43.92326355 C-22.07580933 43.20267761 -22.70487183 42.48209167 -23.35299683 41.7396698 C-27.92033365 34.92224793 -27.64869505 27.2687879 -26.94674683 19.36076355 C-25.04935798 11.61214563 -20.11163435 5.97717905 -13.44488335 1.78907299 C-8.83822176 -0.09185367 -4.92660378 -0.04639026 0 0 Z " fill="#DE8359" transform="translate(39.946746826171875,307.6392364501953)"/>
<path d="M0 0 C0.99742977 -0.00256327 1.99485955 -0.00512655 3.02251446 -0.0077675 C6.36218986 -0.01270592 9.70141244 0.0037889 13.04104614 0.02018738 C15.43598927 0.02103364 17.83093318 0.02055854 20.22587585 0.01885986 C26.05248391 0.01808787 31.87894384 0.03109244 37.70551805 0.05017284 C44.48666971 0.07163581 51.26780045 0.07610985 58.04898132 0.07953735 C70.14158237 0.0860993 82.23412263 0.10605347 94.32669067 0.13444519 C106.07180477 0.16199242 117.81690234 0.18322275 129.56204224 0.19596863 C130.64843761 0.19715088 130.64843761 0.19715088 131.75678037 0.19835702 C135.39028578 0.2022722 139.0237913 0.20606331 142.6572969 0.20979273 C172.78932491 0.24088063 202.92128193 0.29393281 233.05325317 0.36076355 C233.05325317 0.69076355 233.05325317 1.02076355 233.05325317 1.36076355 C221.45666361 2.15555383 209.92020209 2.51947426 198.29812622 2.55021667 C196.59363107 2.5581884 194.88913784 2.56657848 193.18464661 2.5753479 C189.54491948 2.59323554 185.90519611 2.60831196 182.26544762 2.62112427 C176.45932267 2.64167364 170.65324326 2.66928877 164.84715271 2.69779968 C153.52195342 2.75250805 142.19673141 2.80068284 130.87149811 2.84774017 C116.55687352 2.90728662 102.24226242 2.96862406 87.92768317 3.03831244 C83.12547264 3.06149093 78.32326784 3.08308144 73.52103233 3.10040283 C63.74762329 3.13604647 53.97473924 3.18807169 44.20172411 3.28497267 C39.4802394 3.33177369 34.75896909 3.36895351 30.0372963 3.39070129 C24.95649012 3.41542676 19.87647767 3.46593382 14.79606211 3.53308964 C12.8619669 3.55467284 10.92775776 3.56790248 8.99354684 3.57217312 C6.30993151 3.57965058 3.628378 3.61805867 0.94517517 3.66362 C0.16090373 3.65879766 -0.62336771 3.65397532 -1.43140495 3.64900684 C-8.46926551 3.82653306 -13.21389268 6.77563125 -18.25924683 11.54826355 C-22.11060239 17.96718949 -23.67682843 24.53829569 -22.57955933 31.9740448 C-20.89482783 38.32818644 -17.36573608 42.57752381 -12.02877808 46.26139832 C-8.23465421 48.26479182 -4.22401439 48.67005556 -0.00924683 49.17326355 C1.30269653 49.35405457 1.30269653 49.35405457 2.6411438 49.53849792 C4.77618511 49.83017024 6.91446703 50.09795566 9.05325317 50.36076355 C8.55825317 51.35076355 8.55825317 51.35076355 8.05325317 52.36076355 C0.05881953 53.91838869 -7.55219931 54.38176532 -14.72409058 50.0834198 C-20.62999625 45.50608342 -25.06699875 40.69725605 -26.94674683 33.36076355 C-27.89867486 23.91896576 -27.41701321 15.89177111 -21.33346558 8.3646698 C-14.92119114 1.52585826 -9.14566944 -0.08611815 0 0 Z " fill="#F3905E" transform="translate(39.946746826171875,307.6392364501953)"/>
<path d="M0 0 C49.5 0 99 0 150 0 C150 0.33 150 0.66 150 1 C132.18 1.33 114.36 1.66 96 2 C126.195 2.495 126.195 2.495 157 3 C157 3.33 157 3.66 157 4 C28.3 4 -100.4 4 -233 4 C-233 3.67 -233 3.34 -233 3 C-136.64 2.67 -40.28 2.34 59 2 C29.795 1.505 29.795 1.505 0 1 C0 0.67 0 0.34 0 0 Z " fill="#CF845E" transform="translate(317,357)"/>
<path d="M0 0 C5.08831607 3.13127143 8.58057069 7.51734473 11 13 C11.4375 16.875 11.4375 16.875 11 20 C9 22 9 22 6 22.1875 C3 22 3 22 1 21 C-0.90711385 20.83963219 -0.90711385 20.83963219 -3.0625 20.875 C-4.25939453 20.87886719 -4.25939453 20.87886719 -5.48046875 20.8828125 C-7.99627508 20.99982675 -10.39018177 21.35145305 -12.875 21.75 C-16.69783725 22.19856409 -16.69783725 22.19856409 -19.1875 20.5625 C-20.4074473 16.71497389 -19.42997476 13.63101433 -18 10 C-13.69902159 2.28790079 -8.98809097 -1.79761819 0 0 Z " fill="#172358" transform="translate(386,163)"/>
<path d="M0 0 C7.18157471 -0.47877165 14.62608749 0.27427758 20.37890625 4.921875 C26.42919861 11.38443406 30.24862627 18.95000367 30 28 C28.54833674 36.82273012 24.36282014 43.63482642 17.39672852 49.19775391 C10.41863121 53.69528034 2.25574354 52.73985881 -5.72265625 52.5859375 C-7.43613695 52.57473004 -9.14963703 52.56619719 -10.86314392 52.56021118 C-15.34673273 52.53743431 -19.82913283 52.47860994 -24.31225586 52.4119873 C-28.89746017 52.35032211 -33.48285885 52.32314473 -38.06835938 52.29296875 C-47.04609174 52.22885362 -56.02294656 52.12661192 -65 52 C-65 51.67 -65 51.34 -65 51 C-56.42226654 50.24387016 -47.9137808 49.84728686 -39.3046875 49.7890625 C-36.93619074 49.76101644 -34.56770123 49.73235217 -32.19921875 49.703125 C-28.52848344 49.66184213 -24.85788724 49.62487765 -21.18701172 49.59863281 C-17.60096688 49.57088223 -14.01550422 49.52504871 -10.4296875 49.4765625 C-9.34605927 49.47330963 -8.26243103 49.47005676 -7.14596558 49.46670532 C1.78540183 49.32420608 11.38903265 48.33396739 18.5625 42.48828125 C23.09499555 37.79567037 24.27430872 33.0713839 24.5625 26.625 C24.3078181 20.15308344 23.12647463 15.08902163 19 10 C12.81767749 4.6406808 7.15137753 2.13362914 -1 2 C-0.67 1.34 -0.34 0.68 0 0 Z " fill="#EF914F" transform="translate(465,308)"/>
<path d="M0 0 C0.66 0.66 1.32 1.32 2 2 C0.02 2 -1.96 2 -4 2 C-4 2.66 -4 3.32 -4 4 C-5.609375 5.11328125 -5.609375 5.11328125 -7.75 6.3125 C-14.01676406 10.1366629 -16.62794119 14.28303548 -18.51953125 21.31640625 C-19.78529126 28.386139 -18.53881818 34.07794765 -14.7421875 40.11328125 C-9.25200597 46.05892627 -3.98763279 47.86630544 3.9375 48.8125 C5.24944336 48.99329102 5.24944336 48.99329102 6.58789062 49.17773438 C8.72293194 49.46940669 10.86121386 49.73719211 13 50 C12.505 50.99 12.505 50.99 12 52 C4.00556635 53.55762514 -3.60545248 54.02100177 -10.77734375 49.72265625 C-16.68324942 45.14531987 -21.12025192 40.3364925 -23 33 C-23.95192803 23.55820221 -23.47026638 15.53100756 -17.38671875 8.00390625 C-12.4493623 2.73812254 -7.52534216 -0.85515252 0 0 Z " fill="#E8955C" transform="translate(36,308)"/>
<path d="M0 0 C12.75 -0.125 12.75 -0.125 15 1 C15.66 0.67 16.32 0.34 17 0 C20.5 -0.1875 20.5 -0.1875 24 0 C27.42230115 3.42230115 26.85895868 8.33281443 27 13 C26.82650748 15.4123722 26.47534734 17.62326328 26 20 C25.01 20 24.02 20 23 20 C22.67 15.05 22.34 10.1 22 5 C21.01 4.67 20.02 4.34 19 4 C16.55289624 5.86977097 16.03068507 6.82502483 15.48828125 9.91796875 C15.43027344 10.99691406 15.37226563 12.07585937 15.3125 13.1875 C15.24675781 14.27417969 15.18101562 15.36085938 15.11328125 16.48046875 C15.07589844 17.31191406 15.03851563 18.14335937 15 19 C13.68 19 12.36 19 11 19 C10.67 14.05 10.34 9.1 10 4 C6.25724788 4.57125354 6.25724788 4.57125354 5 6 C4.76518307 8.18292774 4.58636677 10.37203174 4.4375 12.5625 C4.31181641 14.35880859 4.31181641 14.35880859 4.18359375 16.19140625 C4.12300781 17.11824219 4.06242187 18.04507812 4 19 C2.68 19 1.36 19 0 19 C0 12.73 0 6.46 0 0 Z " fill="#1C244D" transform="translate(419,327)"/>
<path d="M0 0 C0.76837189 0.0028299 1.53674377 0.00565979 2.32839966 0.00857544 C4.76336771 0.01969939 7.19795712 0.0447889 9.6328125 0.0703125 C11.29166132 0.08035239 12.95051596 0.08947647 14.609375 0.09765625 C18.65899829 0.11961313 22.70834137 0.15408844 26.7578125 0.1953125 C26.4278125 0.8553125 26.0978125 1.5153125 25.7578125 2.1953125 C24.79480225 2.22036865 23.83179199 2.2454248 22.83959961 2.27124023 C19.24068633 2.36595521 15.6419375 2.46601502 12.04321289 2.56762695 C10.49051786 2.61073495 8.93778276 2.65242518 7.38500977 2.69262695 C5.14326947 2.7509194 2.90172646 2.81443828 0.66015625 2.87890625 C-0.36840233 2.90397499 -0.36840233 2.90397499 -1.41773987 2.92955017 C-5.81282312 3.06233832 -9.84241677 3.56677382 -14.2421875 4.1953125 C-14.5721875 33.8953125 -14.9021875 63.5953125 -15.2421875 94.1953125 C-17.71783828 90.48183633 -17.53093018 87.62820691 -17.5168457 83.33081055 C-17.52195663 82.53046387 -17.52706757 81.73011719 -17.53233337 80.90551758 C-17.54624904 78.25594634 -17.54527075 75.60663473 -17.54296875 72.95703125 C-17.54685538 71.11481123 -17.55118999 69.27259211 -17.55595398 67.43037415 C-17.56342101 63.56593932 -17.563122 59.70159583 -17.55786133 55.8371582 C-17.55207446 50.89070394 -17.56897638 45.94462506 -17.592206 40.99823284 C-17.60695842 37.19175539 -17.60781284 33.38536794 -17.60469627 29.57886696 C-17.605209 27.75565664 -17.6104377 25.93244123 -17.62050819 24.10925865 C-17.63288074 21.55525949 -17.62607558 19.00198608 -17.61450195 16.44799805 C-17.62214569 15.69817154 -17.62978943 14.94834503 -17.63766479 14.17579651 C-17.59053096 9.45666111 -16.79149922 6.18019022 -14.2421875 2.1953125 C-9.66660885 -0.13804032 -5.0345919 -0.07074449 0 0 Z " fill="#D07941" transform="translate(38.2421875,166.8046875)"/>
<path d="M0 0 C4.29 0 8.58 0 13 0 C17.14245706 4.14245706 17.6347979 4.7855798 18.03515625 10.0390625 C17.9668876 13.84693585 16.86182948 16.10739089 14.25 18.8125 C11.34704946 20.34461279 9.23634803 20.28767538 6 20 C5.67 19.67 5.34 19.34 5 19 C4.67 21.64 4.34 24.28 4 27 C2.68 27 1.36 27 0 27 C0 18.09 0 9.18 0 0 Z M5.3125 4 C3.1517486 7.29257356 3.69183122 10.11707331 4 14 C4.66 14.66 5.32 15.32 6 16 C9.59679066 15.67673447 9.59679066 15.67673447 13 15 C13.80118189 11.01315363 13.80118189 11.01315363 14 7 C12.41473019 4.41290128 12.41473019 4.41290128 10 3 C7.10322171 2.7450988 7.10322171 2.7450988 5.3125 4 Z " fill="#1F254D" transform="translate(210,327)"/>
<path d="M0 0 C1.65 0 3.3 0 5 0 C7.50294991 5.37670721 9.75968636 10.8108136 11.8125 16.375 C12.25207031 17.55835938 12.69164062 18.74171875 13.14453125 19.9609375 C14 23 14 23 13 26 C11.68 25.67 10.36 25.34 9 25 C8.67 23.02 8.34 21.04 8 19 C4.7 19 1.4 19 -2 19 C-2.66 21.31 -3.32 23.62 -4 26 C-5.32 25.67 -6.64 25.34 -8 25 C-5.85406445 16.45115106 -3.0505873 8.25949525 0 0 Z M2 6 C1.34 8.97 0.68 11.94 0 15 C1.98 15 3.96 15 6 15 C5.44271087 11.65626525 4.64826111 8.96687001 3 6 C2.67 6 2.34 6 2 6 Z " fill="#1D2350" transform="translate(150,321)"/>
<path d="M0 0 C12.02463194 -0.60730464 12.02463194 -0.60730464 16.3125 2.0625 C18.4451128 5.77482598 18.76602489 7.78686313 18 12 C16.0625 14.4375 16.0625 14.4375 13 16 C9.91524935 16.3146652 7.11635109 16.18605081 4 16 C4 19.3 4 22.6 4 26 C2.68 25.67 1.36 25.34 0 25 C0 16.75 0 8.5 0 0 Z M4 4 C4 6.64 4 9.28 4 12 C6.97 12 9.94 12 13 12 C14.01540112 7.89776415 14.01540112 7.89776415 13 4 C10.03 4 7.06 4 4 4 Z " fill="#1B234F" transform="translate(80,321)"/>
<path d="M0 0 C12 0 12 0 17 3 C18.44430855 5.88861709 18.37688506 7.79647701 18 11 C16.0625 13.875 16.0625 13.875 13 16 C9.87327402 16.41306246 7.17628148 16.23703593 4 16 C4 18.97 4 21.94 4 25 C2.68 25 1.36 25 0 25 C0 16.75 0 8.5 0 0 Z M4 4 C4 6.64 4 9.28 4 12 C8.0100934 12.17864631 8.0100934 12.17864631 12 12 C12.66 11.34 13.32 10.68 14 10 C13.71016731 6.69316534 13.71016731 6.69316534 12 4 C9.32941149 3.85884839 6.67567762 3.95752893 4 4 Z " fill="#1C2451" transform="translate(306,321)"/>
<path d="M0 0 C0.99 0 1.98 0 3 0 C3.33 8.58 3.66 17.16 4 26 C-1.23572322 27.30893081 -5.74686181 27.14613924 -11 26 C-13.78102651 23.13528519 -14.43141466 21.01188524 -14.4375 17.0625 C-14.31281546 13.68604267 -13.9904221 11.98004604 -12.5 8.875 C-8.83881092 6.12910819 -6.50611865 6.55677521 -2 7 C-1.67 7.33 -1.34 7.66 -1 8 C-0.67 5.36 -0.34 2.72 0 0 Z M-7 10 C-8.66641006 10.990755 -8.66641006 10.990755 -10 13 C-10.39491399 15.79873829 -10.227129 18.13817454 -10 21 C-8.17528109 23.21896136 -8.17528109 23.21896136 -5.5625 23.375 C-2.92909233 23.21742228 -2.92909233 23.21742228 -1.125 21.4375 C0.44714679 18.03118195 -0.23905789 15.59718087 -1 12 C-2.98 11.34 -4.96 10.68 -7 10 Z " fill="#1E2451" transform="translate(180,320)"/>
<path d="M0 0 C1.17755859 -0.00773437 1.17755859 -0.00773437 2.37890625 -0.015625 C4.4375 0.25 4.4375 0.25 6.4375 2.25 C6.6328125 5.5078125 6.6328125 5.5078125 6.5625 9.375 C6.54445313 10.65632813 6.52640625 11.93765625 6.5078125 13.2578125 C6.48460937 14.24523437 6.46140625 15.23265625 6.4375 16.25 C7.4275 16.58 8.4175 16.91 9.4375 17.25 C9.1075 18.24 8.7775 19.23 8.4375 20.25 C7.468125 20.064375 6.49875 19.87875 5.5 19.6875 C4.489375 19.543125 3.47875 19.39875 2.4375 19.25 C2.1075 19.58 1.7775 19.91 1.4375 20.25 C-2.14795144 20.64838349 -3.9605349 20.65131007 -7 18.625 C-8.5625 16.25 -8.5625 16.25 -8.6875 13.1875 C-7.5625 10.25 -7.5625 10.25 -4.75 8.375 C-1.5625 7.25 -1.5625 7.25 2.4375 7.25 C2.1075 6.26 1.7775 5.27 1.4375 4.25 C0.695 4.415 -0.0475 4.58 -0.8125 4.75 C-3.5625 5.25 -3.5625 5.25 -7.5625 5.25 C-7.5625 4.26 -7.5625 3.27 -7.5625 2.25 C-4.42838698 0.16059132 -3.58799528 -0.02364412 0 0 Z M-2.5625 11.25 C-3.2225 12.57 -3.8825 13.89 -4.5625 15.25 C-2.5825 16.24 -2.5825 16.24 -0.5625 17.25 C0.4275 16.59 1.4175 15.93 2.4375 15.25 C2.1075 14.26 1.7775 13.27 1.4375 12.25 C-0.57758358 11.51676204 -0.57758358 11.51676204 -2.5625 11.25 Z " fill="#1F264D" transform="translate(344.5625,326.75)"/>
<path d="M0 0 C2.5 2.125 2.5 2.125 4 5 C4 6.98 4 8.96 4 11 C-0.29 11 -4.58 11 -9 11 C-8.34 12.32 -7.68 13.64 -7 15 C-2.2102679 15.23428313 -2.2102679 15.23428313 2 13 C2.99 14.485 2.99 14.485 4 16 C1.28008692 18.55991819 -0.30130997 19.91444612 -4.0625 20.375 C-6.94822797 20.0066092 -8.6443401 19.68261422 -11 18 C-13.33819848 14.96034198 -13.35293545 11.72968476 -13.26171875 7.96875 C-12.88178212 5.11071927 -11.7662886 3.24182784 -10 1 C-6.78447181 -0.60776409 -3.47794 -0.60485913 0 0 Z M-7.75 4.4375 C-9.10411584 5.79664875 -9.10411584 5.79664875 -9 7 C-6.03 7 -3.06 7 0 7 C-0.66 5.68 -1.32 4.36 -2 3 C-5.86230064 2.57684038 -5.86230064 2.57684038 -7.75 4.4375 Z " fill="#1E2450" transform="translate(114,327)"/>
<path d="M0 0 C1.37957758 0.02343075 2.75915521 0.0468581 4.13873291 0.07028198 C8.07183946 0.13864103 12.00466768 0.21804915 15.9375 0.30078125 C17.10892548 0.32385345 18.28035095 0.34692566 19.48727417 0.37069702 C26.03535081 0.52644608 32.49482018 0.91530281 39 1.6875 C39 2.0175 39 2.3475 39 2.6875 C1.38 2.6875 -36.24 2.6875 -75 2.6875 C-75 2.3575 -75 2.0275 -75 1.6875 C-49.97701306 -0.0506211 -25.06821459 -0.44545184 0 0 Z " fill="#F08F54" transform="translate(347,357.3125)"/>
<path d="M0 0 C49.5 0 99 0 150 0 C150 0.33 150 0.66 150 1 C149.35235184 1.01030746 148.70470367 1.02061493 148.03742981 1.03123474 C141.23914316 1.14020823 134.44096515 1.2547207 127.64282227 1.37231445 C125.11257217 1.41537499 122.58229837 1.45706758 120.05200195 1.49731445 C116.3952727 1.55572405 112.73865958 1.61920699 109.08203125 1.68359375 C107.41090019 1.70866249 107.41090019 1.70866249 105.70600891 1.73423767 C99.03499615 1.85742076 92.42113383 2.215436 85.77255249 2.77940369 C82.44743436 3.04396452 79.14770792 3.13312475 75.8125 3.125 C74.21341797 3.12886719 74.21341797 3.12886719 72.58203125 3.1328125 C69.88257392 3.03272357 67.31828414 2.82208773 64.64379883 2.51147461 C58.14123726 1.84918865 51.64881075 1.77170109 45.1171875 1.68359375 C43.82177032 1.66281265 42.52635315 1.64203156 41.19168091 1.62062073 C37.7822345 1.56597311 34.37273386 1.51631635 30.9631958 1.46777344 C27.47020765 1.41713414 23.97729623 1.36167179 20.484375 1.30664062 C13.65631676 1.19976242 6.82818889 1.09816762 0 1 C0 0.67 0 0.34 0 0 Z " fill="#CD7B56" transform="translate(317,357)"/>
<path d="M0 0 C7.47077729 -0.49438967 12.61213935 0.01359072 19 4 C19.66 4.33 20.32 4.66 21 5 C21.53625 4.175 22.0725 3.35 22.625 2.5 C25.68279182 -0.61097081 28.84893779 -0.46165512 33.0625 -0.5625 C39.26964363 -0.56912449 39.26964363 -0.56912449 42.37109375 1.84765625 C45.00505883 5.32802737 45.12869431 8.17196123 45.14526367 12.40185547 C45.15164352 13.50665253 45.15802338 14.61144958 45.16459656 15.74972534 C45.16570938 16.94348785 45.1668222 18.13725037 45.16796875 19.3671875 C45.17296135 21.20750046 45.17296135 21.20750046 45.17805481 23.08499146 C45.1831216 25.68247095 45.18546321 28.27995697 45.18530273 30.87744141 C45.18748736 34.8519972 45.20564092 38.82627466 45.22460938 42.80078125 C45.2275437 45.32291572 45.22952823 47.8450515 45.23046875 50.3671875 C45.23765427 51.55690155 45.24483978 52.7466156 45.25224304 53.97238159 C45.24916641 55.08348297 45.24608978 56.19458435 45.24291992 57.33935547 C45.24434494 58.31403778 45.24576996 59.28872009 45.24723816 60.29293823 C44.97672315 63.25486304 44.36296091 65.35944396 43 68 C39.35594748 70.42936835 37.401183 70.32947342 33.0625 70.375 C31.22365234 70.41753906 31.22365234 70.41753906 29.34765625 70.4609375 C25.49129681 69.92995685 24.36754191 69.00244663 22 66 C22.96099609 66.23396484 22.96099609 66.23396484 23.94140625 66.47265625 C30.49258638 67.94691586 35.52638408 68.15787197 42 66 C42.78721942 62.52388341 43.12622722 59.31550602 43.12939453 55.75415039 C43.13412277 54.22214745 43.13412277 54.22214745 43.13894653 52.65919495 C43.1369223 51.56638718 43.13489807 50.47357941 43.1328125 49.34765625 C43.13376923 48.21476669 43.13472595 47.08187714 43.13571167 45.91465759 C43.13639139 43.5216364 43.1345516 41.12861334 43.13037109 38.7355957 C43.12502493 35.07954752 43.13032061 31.42362247 43.13671875 27.76757812 C43.13605783 25.4401039 43.13477639 23.11262974 43.1328125 20.78515625 C43.13483673 19.69437271 43.13686096 18.60358917 43.13894653 17.47975159 C43.12376133 12.54439171 43.05329159 7.848593 42 3 C39.56183415 2.9190277 37.12635616 2.85953028 34.6875 2.8125 C33.99720703 2.78736328 33.30691406 2.76222656 32.59570312 2.73632812 C28.55857699 2.61302112 28.55857699 2.61302112 25.14453125 4.51171875 C24.76683594 5.00285156 24.38914062 5.49398437 24 6 C23.34 6 22.68 6 22 6 C21.67 6.66 21.34 7.32 21 8 C20.48953125 7.66226563 19.9790625 7.32453125 19.453125 6.9765625 C13.15348471 3.11188955 7.29912031 1.82748064 0 1 C0 0.67 0 0.34 0 0 Z " fill="#1F244B" transform="translate(413,195)"/>
<path d="M0 0 C2.82189509 1.66419454 3.71614764 2.94343842 4.5625 6.09375 C5.17492213 9.92138833 5.2864399 12.32686624 3.75 15.9375 C1.39856592 18.70883303 -0.22929785 19.91622803 -3.875 20.3125 C-7.38228638 19.96177136 -9.19062242 19.0869662 -12 17 C-13.86524588 13.26950824 -13.54848015 9.06257971 -13 5 C-9.45125094 -0.5449204 -6.11907918 -0.87415417 0 0 Z M-7.6875 4 C-9.8482514 7.29257356 -9.30816878 10.11707331 -9 14 C-8.34 14.66 -7.68 15.32 -7 16 C-3.43407381 15.83582968 -3.43407381 15.83582968 0 15 C1.42041821 12.15916359 1.31452272 10.14522722 1 7 C-0.68832016 4.5608859 -0.68832016 4.5608859 -3 3 C-5.89677829 2.7450988 -5.89677829 2.7450988 -7.6875 4 Z " fill="#1D244D" transform="translate(396,327)"/>
<path d="M0 0 C2.82189509 1.66419454 3.71614764 2.94343842 4.5625 6.09375 C5.17492213 9.92138833 5.2864399 12.32686624 3.75 15.9375 C1.36274885 18.751046 -0.2246755 19.93401494 -3.9375 20.25 C-6.9394456 20.00494322 -8.53377009 19.67351315 -11 18 C-13.83405067 13.748924 -13.75459637 9.98827918 -13 5 C-9.45125094 -0.5449204 -6.11907918 -0.87415417 0 0 Z M-7.6875 4 C-9.8482514 7.29257356 -9.30816878 10.11707331 -9 14 C-7.11340125 16.30662599 -7.11340125 16.30662599 -4 16.3125 C-3.01 16.209375 -2.02 16.10625 -1 16 C1.32749345 12.50875983 1.50299316 11.10777749 1 7 C-0.68832016 4.5608859 -0.68832016 4.5608859 -3 3 C-5.89677829 2.7450988 -5.89677829 2.7450988 -7.6875 4 Z " fill="#1D2450" transform="translate(267,327)"/>
<path d="M0 0 C2.82189509 1.66419454 3.71614764 2.94343842 4.5625 6.09375 C5.17492213 9.92138833 5.2864399 12.32686624 3.75 15.9375 C1.36274885 18.751046 -0.2246755 19.93401494 -3.9375 20.25 C-6.9394456 20.00494322 -8.53377009 19.67351315 -11 18 C-13.83405067 13.748924 -13.75459637 9.98827918 -13 5 C-9.45125094 -0.5449204 -6.11907918 -0.87415417 0 0 Z M-7.6875 4 C-9.8482514 7.29257356 -9.30816878 10.11707331 -9 14 C-7.11340125 16.30662599 -7.11340125 16.30662599 -4 16.3125 C-3.01 16.209375 -2.02 16.10625 -1 16 C1.32749345 12.50875983 1.50299316 11.10777749 1 7 C-0.68832016 4.5608859 -0.68832016 4.5608859 -3 3 C-5.89677829 2.7450988 -5.89677829 2.7450988 -7.6875 4 Z " fill="#1D244D" transform="translate(201,327)"/>
<path d="M0 0 C2.9375 0.625 2.9375 0.625 4.875 2.625 C6.25670385 6.52628146 6.21946606 9.74001749 4.9375 13.625 C2.6875 16.6875 2.6875 16.6875 -0.0625 18.625 C-2.75 18.625 -2.75 18.625 -5.0625 17.625 C-7.75420954 13.58743569 -7.72670635 10.36577282 -7.0625 5.625 C-5.08355595 1.89545159 -4.149432 0.84682286 0 0 Z " fill="#182356" transform="translate(389.0625,139.375)"/>
<path d="M0 0 C6.40096618 0.36231884 6.40096618 0.36231884 8.9375 3.0625 C10.40083332 7.10818624 10.47881776 9.69064016 10 14 C8.3125 16.5625 8.3125 16.5625 6 18 C3.5 18.125 3.5 18.125 1 17 C-1.85798703 13.7557985 -2.91770829 11.68184557 -3.4375 7.375 C-2.98717462 3.90106135 -2.38969738 2.4892681 0 0 Z " fill="#182356" transform="translate(370,140)"/>
<path d="M0 0 C33 0 66 0 100 0 C100 0.33 100 0.66 100 1 C66.41613434 2.77452691 33.56149498 3.24859624 0 1 C0 0.67 0 0.34 0 0 Z " fill="#D77C53" transform="translate(214,357)"/>
<path d="M0 0 C2.475 0.495 2.475 0.495 5 1 C5.33 0.67 5.66 0.34 6 0 C12.36341719 -0.47136424 12.36341719 -0.47136424 14.70825195 1.26489258 C16.27805558 3.37349102 16.35167549 4.40905338 16.29296875 7.01171875 C16.28330078 7.76904297 16.27363281 8.52636719 16.26367188 9.30664062 C16.23853516 10.09232422 16.21339844 10.87800781 16.1875 11.6875 C16.16719727 12.88342773 16.16719727 12.88342773 16.14648438 14.10351562 C16.11117089 16.06929967 16.05736447 18.03473582 16 20 C14.68 19.67 13.36 19.34 12 19 C12.01160156 18.16855469 12.02320313 17.33710938 12.03515625 16.48046875 C12.04417969 15.39378906 12.05320312 14.30710937 12.0625 13.1875 C12.07410156 12.10855469 12.08570313 11.02960938 12.09765625 9.91796875 C12.13624766 6.93487831 12.13624766 6.93487831 11 4 C7.70924004 4.37904208 7.70924004 4.37904208 5 6 C4.76518307 8.18292774 4.58636677 10.37203174 4.4375 12.5625 C4.31181641 14.35880859 4.31181641 14.35880859 4.18359375 16.19140625 C4.12300781 17.11824219 4.06242187 18.04507812 4 19 C2.68 19 1.36 19 0 19 C0 12.73 0 6.46 0 0 Z " fill="#20244B" transform="translate(276,327)"/>
<path d="M0 0 C2.3125 0.5 2.3125 0.5 4.3125 3.5 C5.0996925 10.47227645 5.0996925 10.47227645 2.0625 14.4375 C-0.36795561 16.26034171 -1.72035617 17.17031735 -4.6875 17.5 C-7.61623455 14.57126545 -8.67472254 13.21553793 -8.75 9 C-7.28054545 4.15944383 -5.17626171 0.96302543 0 0 Z " fill="#17235D" transform="translate(399.6875,152.5)"/>
<path d="M0 0 C6.40381558 0.48330684 6.40381558 0.48330684 8.875 2.625 C10.3918463 5.82723108 10.87356763 8.45989354 11 12 C9.875 14.4375 9.875 14.4375 8 16 C5.625 16.625 5.625 16.625 3 16 C-0.64883483 12.67550604 -1.85225592 11.24527155 -2.4375 6.3125 C-2 3 -2 3 0 0 Z " fill="#18235A" transform="translate(360,154)"/>
<path d="M0 0 C-0.33 1.32 -0.66 2.64 -1 4 C-2.65 4 -4.3 4 -6 4 C-6.33 4.99 -6.66 5.98 -7 7 C-5.02 7 -3.04 7 -1 7 C-1 8.32 -1 9.64 -1 11 C-2.65 11 -4.3 11 -6 11 C-6.33 16.28 -6.66 21.56 -7 27 C-7.99 27 -8.98 27 -10 27 C-10.19672365 25.27185839 -10.38196799 23.54240803 -10.5625 21.8125 C-10.66691406 20.84957031 -10.77132813 19.88664062 -10.87890625 18.89453125 C-10.99758751 16.05766623 -10.67765639 13.74576329 -10 11 C-11.32 10.67 -12.64 10.34 -14 10 C-14 9.01 -14 8.02 -14 7 C-13.01 7 -12.02 7 -11 7 C-10.9175 6.05125 -10.835 5.1025 -10.75 4.125 C-10 1 -10 1 -8.3125 -0.4375 C-5.30087749 -1.17005683 -2.99492576 -0.68066494 0 0 Z " fill="#20254B" transform="translate(382,320)"/>
<path d="M0 0 C0 0.33 0 0.66 0 1 C-26.4 1 -52.8 1 -80 1 C-80 0.67 -80 0.34 -80 0 C-71.74239054 -1.11555284 -63.50927252 -1.44280761 -55.1875 -1.6875 C-53.98802231 -1.72410233 -53.98802231 -1.72410233 -52.76431274 -1.76144409 C-35.10551032 -2.26631924 -17.60418285 -1.3372959 0 0 Z " fill="#EF8E53" transform="translate(248,359)"/>
<path d="M0 0 C0.99 0 1.98 0 3 0 C3 1.32 3 2.64 3 4 C4.98 4 6.96 4 9 4 C8.67 5.32 8.34 6.64 8 8 C6.68 8 5.36 8 4 8 C4 11.63 4 15.26 4 19 C5.98 19.66 7.96 20.32 10 21 C10 21.66 10 22.32 10 23 C3.375 24.25 3.375 24.25 0 22 C-1.79791356 17.58693945 -1.47716663 12.4314999 0 8 C-1.32 7.67 -2.64 7.34 -4 7 C-4 6.01 -4 5.02 -4 4 C-2.68 4 -1.36 4 0 4 C0 2.68 0 1.36 0 0 Z " fill="#262950" transform="translate(358,323)"/>
<path d="M0 0 C0.99 0 1.98 0 3 0 C3 1.32 3 2.64 3 4 C4.98 4 6.96 4 9 4 C9 5.32 9 6.64 9 8 C7.35 8 5.7 8 4 8 C4 11.96 4 15.92 4 20 C5.65 19.67 7.3 19.34 9 19 C9.33 20.32 9.66 21.64 10 23 C3.375 24.25 3.375 24.25 0 22 C-0.29296875 18.7421875 -0.29296875 18.7421875 -0.1875 14.875 C-0.16042969 13.59367187 -0.13335937 12.31234375 -0.10546875 10.9921875 C-0.07066406 10.00476563 -0.03585938 9.01734375 0 8 C-1.32 7.67 -2.64 7.34 -4 7 C-3.67 6.01 -3.34 5.02 -3 4 C-2.01 4 -1.02 4 0 4 C0 2.68 0 1.36 0 0 Z " fill="#1E244B" transform="translate(233,323)"/>
<path d="M0 0 C0.99 0 1.98 0 3 0 C3 1.32 3 2.64 3 4 C4.98 4 6.96 4 9 4 C8.67 5.32 8.34 6.64 8 8 C6.68 8 5.36 8 4 8 C4 11.63 4 15.26 4 19 C5.98 19.66 7.96 20.32 10 21 C10 21.66 10 22.32 10 23 C3.375 24.25 3.375 24.25 0 22 C-0.29296875 18.7421875 -0.29296875 18.7421875 -0.1875 14.875 C-0.16042969 13.59367187 -0.13335937 12.31234375 -0.10546875 10.9921875 C-0.07066406 10.00476563 -0.03585938 9.01734375 0 8 C-1.32 7.67 -2.64 7.34 -4 7 C-4 6.01 -4 5.02 -4 4 C-2.68 4 -1.36 4 0 4 C-0.33 3.01 -0.66 2.02 -1 1 C-0.67 0.67 -0.34 0.34 0 0 Z " fill="#1F254C" transform="translate(123,323)"/>
<path d="M0 0 C3.63 0 7.26 0 11 0 C11 1.32 11 2.64 11 4 C9.02 4.66 7.04 5.32 5 6 C4.67 10.29 4.34 14.58 4 19 C2.68 19 1.36 19 0 19 C0 12.73 0 6.46 0 0 Z " fill="#21254C" transform="translate(405,327)"/>
<path d="M0 0 C-6.81346592 2.80182859 -12.7423651 3.38616754 -20.0625 3.1875 C-21.02349609 3.17396484 -21.98449219 3.16042969 -22.97460938 3.14648438 C-25.31701752 3.11152306 -27.65819156 3.06246104 -30 3 C-29.97679687 4.26457031 -29.95359375 5.52914062 -29.9296875 6.83203125 C-29.91092874 8.4921816 -29.89272865 10.15233833 -29.875 11.8125 C-29.84986328 13.06256836 -29.84986328 13.06256836 -29.82421875 14.33789062 C-29.81777344 15.14033203 -29.81132813 15.94277344 -29.8046875 16.76953125 C-29.79421387 17.50792236 -29.78374023 18.24631348 -29.77294922 19.00708008 C-30 21 -30 21 -32 24 C-32.33 16.74 -32.66 9.48 -33 2 C-30.39359187 0.69679593 -28.35680934 0.80552207 -25.44140625 0.71875 C-23.77948242 0.66267578 -23.77948242 0.66267578 -22.08398438 0.60546875 C-20.92189453 0.57066406 -19.75980469 0.53585938 -18.5625 0.5 C-16.27200895 0.43117055 -13.98163101 0.35843364 -11.69140625 0.28125 C-10.67248291 0.25095703 -9.65355957 0.22066406 -8.60375977 0.18945312 C-1.07504041 -0.3583468 -1.07504041 -0.3583468 0 0 Z " fill="#DA784B" transform="translate(77,236)"/>
<path d="M0 0 C0.99 0 1.98 0 3 0 C3.01458252 0.65597168 3.02916504 1.31194336 3.04418945 1.98779297 C3.11851414 4.95080031 3.21522369 7.91266117 3.3125 10.875 C3.33505859 11.90753906 3.35761719 12.94007813 3.38085938 14.00390625 C3.41630859 14.99003906 3.45175781 15.97617187 3.48828125 16.9921875 C3.51446533 17.90339355 3.54064941 18.81459961 3.56762695 19.75341797 C3.71031006 20.49479004 3.85299316 21.23616211 4 22 C4.99 22.66 5.98 23.32 7 24 C7 24.99 7 25.98 7 27 C4.625 27.125 4.625 27.125 2 27 C0 25 0 25 -0.22705078 22.47802734 C-0.21657715 21.4411377 -0.20610352 20.40424805 -0.1953125 19.3359375 C-0.18886719 18.21445312 -0.18242187 17.09296875 -0.17578125 15.9375 C-0.15902344 14.761875 -0.14226562 13.58625 -0.125 12.375 C-0.11597656 11.19164062 -0.10695313 10.00828125 -0.09765625 8.7890625 C-0.07402812 5.85917477 -0.04108514 2.9296866 0 0 Z " fill="#1F264E" transform="translate(328,320)"/>
<path d="M0 0 C5.61 0 11.22 0 17 0 C17 0.33 17 0.66 17 1 C25.91 1.66 34.82 2.32 44 3 C44 3.33 44 3.66 44 4 C27.83 4 11.66 4 -5 4 C-5 3.67 -5 3.34 -5 3 C1.435 2.505 1.435 2.505 8 2 C5.36 1.67 2.72 1.34 0 1 C0 0.67 0 0.34 0 0 Z " fill="#E38B65" transform="translate(40,357)"/>
<path d="M0 0 C1.32 0 2.64 0 4 0 C4 6.27 4 12.54 4 19 C2.68 19 1.36 19 0 19 C0 12.73 0 6.46 0 0 Z " fill="#1D2652" transform="translate(246,327)"/>
<path d="M0 0 C2.3125 0.5 2.3125 0.5 4.3125 3.5 C5.0996925 10.47227645 5.0996925 10.47227645 2.0625 14.4375 C-0.36795561 16.26034171 -1.72035617 17.17031735 -4.6875 17.5 C-7.61623455 14.57126545 -8.67472254 13.21553793 -8.75 9 C-7.28054545 4.15944383 -5.17626171 0.96302543 0 0 Z M-4.6875 3.5 C-6.84733015 6.30777919 -6.67270982 7.64790181 -6.3125 11.25 C-6.10625 12.3225 -5.9 13.395 -5.6875 14.5 C-4.0375 14.83 -2.3875 15.16 -0.6875 15.5 C2.34044331 11.49175131 2.34044331 11.49175131 3.6875 6.75 C3.50382424 4.30383211 3.50382424 4.30383211 1.3125 2.5 C-1.74020463 2.34188612 -1.74020463 2.34188612 -4.6875 3.5 Z " fill="#1F2248" transform="translate(399.6875,152.5)"/>
<path d="M0 0 C1.5778125 0.6496875 1.5778125 0.6496875 3.1875 1.3125 C9.46919469 3.85314832 16.31599924 4.26023429 23 5 C22.67 5.66 22.34 6.32 22 7 C15.51334052 8.16154558 8.23115492 9.17470309 2.125 6.25 C-1 4 -1 4 -2 1 C-1.34 0.67 -0.68 0.34 0 0 Z " fill="#EF984E" transform="translate(26,353)"/>
<path d="M0 0 C0.99 0 1.98 0 3 0 C3 0.66 3 1.32 3 2 C3.99 2 4.98 2 6 2 C7.79074734 7.89893243 8.08360869 11.93179132 7 18 C6.01 18 5.02 18 4 18 C3.79503906 16.95199219 3.59007812 15.90398437 3.37890625 14.82421875 C3.10687314 13.44529231 2.83473209 12.06638717 2.5625 10.6875 C2.42779297 9.99720703 2.29308594 9.30691406 2.15429688 8.59570312 C1.57225668 5.65710993 0.94847772 2.84543315 0 0 Z " fill="#ED9147" transform="translate(487,322)"/>
<path d="M0 0 C0.33 3.3 0.66 6.6 1 10 C2.98 10.66 4.96 11.32 7 12 C7 12.66 7 13.32 7 14 C0.375 15.25 0.375 15.25 -3 13 C-4.43490314 9.47796501 -4.27725711 5.74297098 -4 2 C-1 0 -1 0 0 0 Z " fill="#20264D" transform="translate(361,332)"/>
<path d="M0 0 C3.0375486 0.87929038 4.61983604 1.38449645 6.3125 4.125 C7.56294646 9.35413976 7.59693481 13.38827601 5.75 18.375 C3.85319027 21.2202146 3.12826565 21.84297024 0 23 C-3.015625 23.1953125 -3.015625 23.1953125 -6.25 23.125 C-7.32765625 23.10695313 -8.4053125 23.08890625 -9.515625 23.0703125 C-10.33546875 23.04710937 -11.1553125 23.02390625 -12 23 C-12 22.67 -12 22.34 -12 22 C-8.04 21.67 -4.08 21.34 0 21 C0 20.34 0 19.68 0 19 C1.32 19 2.64 19 4 19 C4.05418326 16.91695462 4.09287551 14.83350232 4.125 12.75 C4.14820313 11.58984375 4.17140625 10.4296875 4.1953125 9.234375 C4.0103949 6.17213954 3.60823023 4.55797249 2 2 C1.34 2 0.68 2 0 2 C0 1.34 0 0.68 0 0 Z " fill="#CA7445" transform="translate(224,243)"/>
<path d="M0 0 C12.23089744 -0.76843335 22.5150235 1.97122321 32 10 C33.63707728 11.94679461 34.77127349 13.75623854 36 16 C33.33333333 14.66666667 30.66666667 13.33333333 28 12 C28 11.01 28 10.02 28 9 C19.54625829 4.72520544 12.65451549 1.64242535 3 2 C2.01 2.33 1.02 2.66 0 3 C0 2.01 0 1.02 0 0 Z " fill="#1D214A" transform="translate(278,193)"/>
<path d="M0 0 C0.66 0.33 1.32 0.66 2 1 C2.20086443 4.71599191 2.1519437 5.77208445 0 9 C-0.36433373 11.12337771 -0.36433373 11.12337771 -0.4140625 13.44921875 C-0.45273438 14.29677734 -0.49140625 15.14433594 -0.53125 16.01757812 C-0.5621875 16.89865234 -0.593125 17.77972656 -0.625 18.6875 C-0.66367188 19.58017578 -0.70234375 20.47285156 -0.7421875 21.39257812 C-0.83640218 23.5948462 -0.92201588 25.79710722 -1 28 C-3.42858726 24.3571191 -3.34347103 21.59093181 -3.3125 17.375 C-3.31121094 16.66021484 -3.30992187 15.94542969 -3.30859375 15.20898438 C-3.2075514 9.63649891 -2.20890891 5.1541208 0 0 Z " fill="#1B204B" transform="translate(250,213)"/>
<path d="M0 0 C7.05889737 0.70588974 14.01204964 1.78213386 21 3 C21.33 2.01 21.66 1.02 22 0 C26.29 0.33 30.58 0.66 35 1 C24.25881538 6.37059231 11.03501503 4.64937505 0 1 C0 0.67 0 0.34 0 0 Z " fill="#D17146" transform="translate(125,264)"/>
<path d="M0 0 C0 0.33 0 0.66 0 1 C-2.64 1.66 -5.28 2.32 -8 3 C-8.33531415 4.95799514 -8.66819143 6.91640774 -9 8.875 C-9.185625 9.96554688 -9.37125 11.05609375 -9.5625 12.1796875 C-10.05109708 14.85371964 -10.05109708 14.85371964 -10 17 C-9.34 17 -8.68 17 -8 17 C-8 18.32 -8 19.64 -8 21 C-5.525 21.99 -5.525 21.99 -3 23 C-4.75 23.6875 -4.75 23.6875 -7 24 C-10.07541482 22.2426201 -10.85981998 21.42054006 -12 18 C-12.51128482 11.73676095 -12.6719603 6.36671121 -9 1 C-6.04335481 -0.4783226 -3.25770263 -0.06032783 0 0 Z " fill="#D47847" transform="translate(189,195)"/>
<path d="M0 0 C2.86260096 0.40894299 4.69560733 0.77053476 7.03125 2.53125 C11.4192915 4.7021758 15.49159435 4.32037302 20.3125 4.1875 C21.70952148 4.16719727 21.70952148 4.16719727 23.13476562 4.14648438 C25.42377646 4.11126882 27.71158458 4.06202099 30 4 C26.66729311 7.33270689 23.39292458 7.21103361 18.875 7.3125 C12.1236947 7.26729037 6.29464065 6.09518931 1.2578125 1.36328125 C0.84273438 0.91339844 0.42765625 0.46351563 0 0 Z " fill="#202348" transform="translate(400,258)"/>
<path d="M0 0 C7.98906063 -0.33809504 15.60714361 -0.44368097 23 3 C23.33 3.66 23.66 4.32 24 5 C21.68715544 4.85973717 19.37472409 4.71264442 17.0625 4.5625 C15.13083984 4.44068359 15.13083984 4.44068359 13.16015625 4.31640625 C10 4 10 4 9 3 C7.48530552 2.76807135 5.96245438 2.58784762 4.4375 2.4375 C3.61121094 2.35371094 2.78492188 2.26992187 1.93359375 2.18359375 C1.29550781 2.12300781 0.65742188 2.06242188 0 2 C0 1.34 0 0.68 0 0 Z " fill="#D3793F" transform="translate(135,193)"/>
<path d="M0 0 C0.66 0 1.32 0 2 0 C1.97679687 0.61488281 1.95359375 1.22976562 1.9296875 1.86328125 C1.91164063 2.67152344 1.89359375 3.47976562 1.875 4.3125 C1.84019531 5.51326172 1.84019531 5.51326172 1.8046875 6.73828125 C1.84182678 9.28388576 1.84182678 9.28388576 4 12 C6.58380177 12.25030977 6.58380177 12.25030977 9 12 C9.33 9.36 9.66 6.72 10 4 C12 7 12 7 11.75 10.0625 C11 13 11 13 9 15 C6.6875 15.5 6.6875 15.5 4 15 C0.30958706 11.63762377 -0.87425538 10.25744621 -1.375 5.25 C-1 2 -1 2 0 0 Z " fill="#1E2248" transform="translate(359,155)"/>
<path d="M0 0 C0.66 0.33 1.32 0.66 2 1 C1.31164062 1.80050781 1.31164062 1.80050781 0.609375 2.6171875 C-8.03297577 13.11147058 -9.64139686 21.63756538 -9 35 C-9.99 35.495 -9.99 35.495 -11 36 C-11.80403628 22.59939537 -10.88666933 13.09539011 -2.125 2.25 C-1.42375 1.5075 -0.7225 0.765 0 0 Z " fill="#1F2143" transform="translate(398,203)"/>
<path d="M0 0 C0.66 0 1.32 0 2 0 C2 0.99 2 1.98 2 3 C1.34 3 0.68 3 0 3 C0 3.99 0 4.98 0 6 C1.65 5.34 3.3 4.68 5 4 C4.0114653 6.69600373 3.34022364 7.80558649 0.8125 9.25 C-2.54230653 10.14461507 -5.54297098 10.13556977 -9 10 C-8.2575 9.278125 -7.515 8.55625 -6.75 7.8125 C-3.98732731 5.09288953 -3.98732731 5.09288953 -1.8125 2.1875 C-1.214375 1.465625 -0.61625 0.74375 0 0 Z " fill="#DC7438" transform="translate(40,256)"/>
<path d="M0 0 C0.33 0.66 0.66 1.32 1 2 C1.66 2 2.32 2 3 2 C3.18175781 2.78246094 3.36351563 3.56492188 3.55078125 4.37109375 C3.80214844 5.38300781 4.05351563 6.39492187 4.3125 7.4375 C4.55613281 8.44683594 4.79976563 9.45617187 5.05078125 10.49609375 C5.36402344 11.32238281 5.67726563 12.14867187 6 13 C6.99 13.33 7.98 13.66 9 14 C9.33 14.66 9.66 15.32 10 16 C10.99 16.33 11.98 16.66 13 17 C13.33 17.99 13.66 18.98 14 20 C14.99 20.33 15.98 20.66 17 21 C17.33 21.99 17.66 22.98 18 24 C11.31184909 21.666114 6.85446011 17.27205222 3.375 11.1328125 C0 3.90340909 0 3.90340909 0 0 Z " fill="#D17C42" transform="translate(104,239)"/>
<path d="M0 0 C1.68609375 -0.04253906 1.68609375 -0.04253906 3.40625 -0.0859375 C6.5 0.375 6.5 0.375 10.5 4.375 C4.56 3.715 -1.38 3.055 -7.5 2.375 C-8.16 3.695 -8.82 5.015 -9.5 6.375 C-10.49 6.87 -10.49 6.87 -11.5 7.375 C-11.25 5 -11.25 5 -10.5 2.375 C-7.16496234 0.05635477 -3.9787388 0.04562774 0 0 Z " fill="#22254C" transform="translate(340.5,194.625)"/>
<path d="M0 0 C0.33 0.99 0.66 1.98 1 3 C0.649375 3.61875 0.29875 4.2375 -0.0625 4.875 C-1.31151158 7.07117281 -1.31151158 7.07117281 -0.125 9.75 C0.24625 10.4925 0.6175 11.235 1 12 C-2.80802445 10.5039904 -4.69424557 8.33936849 -7 5 C-7.75 2.6875 -7.75 2.6875 -8 1 C-2.25 0 -2.25 0 0 0 Z " fill="#DE7537" transform="translate(199,249)"/>
<path d="M0 0 C2.475 0.495 2.475 0.495 5 1 C4.67 1.99 4.34 2.98 4 4 C3.67 3.01 3.34 2.02 3 1 C2.34 1 1.68 1 1 1 C1.33 6.28 1.66 11.56 2 17 C2.33 14.03 2.66 11.06 3 8 C3.33 8 3.66 8 4 8 C4 11.63 4 15.26 4 19 C2.68 19 1.36 19 0 19 C0 12.73 0 6.46 0 0 Z " fill="#272C49" transform="translate(419,327)"/>
<path d="M0 0 C0.53625 0.226875 1.0725 0.45375 1.625 0.6875 C-4.66474501 5.29997968 -12.76146456 6.13535503 -20.375 5.6875 C-22.05057379 5.40229595 -23.72317245 5.08794304 -25.375 4.6875 C-25.375 4.3575 -25.375 4.0275 -25.375 3.6875 C-24.21742188 3.65011719 -23.05984375 3.61273438 -21.8671875 3.57421875 C-20.32809439 3.50852575 -18.7890333 3.44207958 -17.25 3.375 C-16.10917969 3.34116211 -16.10917969 3.34116211 -14.9453125 3.30664062 C-9.76229168 3.06089395 -4.61365142 -0.6070594 0 0 Z " fill="#1E2248" transform="translate(300.375,261.3125)"/>
<path d="M0 0 C2.475 0.99 2.475 0.99 5 2 C4.01 2.495 4.01 2.495 3 3 C3.66 4.32 4.32 5.64 5 7 C3.68 6.67 2.36 6.34 1 6 C0.67 7.65 0.34 9.3 0 11 C-0.99 11.33 -1.98 11.66 -3 12 C-3.33 12.66 -3.66 13.32 -4 14 C-4.99 14 -5.98 14 -7 14 C-7 13.34 -7 12.68 -7 12 C-6.21625 11.46375 -5.4325 10.9275 -4.625 10.375 C-1.03800911 7.12962729 -0.86047459 4.69349778 0 0 Z " fill="#DB7738" transform="translate(73,201)"/>
<path d="M0 0 C0.66 0.33 1.32 0.66 2 1 C2.68860423 12.8210392 2.68860423 12.8210392 0.1875 16.625 C-2 19 -2 19 -5 21 C-8.1875 20.625 -8.1875 20.625 -11 20 C-8.79610856 18.85724148 -6.75510795 17.92420008 -4.375 17.1875 C-1.83204101 16.20786868 -1.83204101 16.20786868 -0.859375 13.7890625 C0.07442474 10.75845787 0.20118425 8.34914647 0.125 5.1875 C0.10695313 4.21167969 0.08890625 3.23585937 0.0703125 2.23046875 C0.04710937 1.49441406 0.02390625 0.75835937 0 0 Z " fill="#1D244A" transform="translate(295,223)"/>
<path d="M0 0 C7.40260417 0.3640625 7.40260417 0.3640625 9.9375 3.0625 C11.3140896 6.86836538 11.80649997 9.93649929 12 14 C11.34 15.32 10.68 16.64 10 18 C9.67 13.38 9.34 8.76 9 4 C7.88625 3.896875 6.7725 3.79375 5.625 3.6875 C3.830625 3.3471875 3.830625 3.3471875 2 3 C1.34 2.01 0.68 1.02 0 0 Z " fill="#D46D3D" transform="translate(223,195)"/>
<path d="M0 0 C6.48470588 0.48941176 6.48470588 0.48941176 8.7109375 2.6953125 C10.29559514 5.52848829 10.36908387 7.39536707 10.3125 10.625 C10.30863281 11.58664063 10.30476563 12.54828125 10.30078125 13.5390625 C10 16 10 16 8 18 C8.02320313 17.31292969 8.04640625 16.62585938 8.0703125 15.91796875 C8.08835937 15.01691406 8.10640625 14.11585938 8.125 13.1875 C8.14820313 12.29417969 8.17140625 11.40085938 8.1953125 10.48046875 C8.18285827 7.74597286 8.18285827 7.74597286 6 5 C5.01 4.34 4.02 3.68 3 3 C1.98131338 2.01904252 0.97648017 1.02297922 0 0 Z " fill="#1E2147" transform="translate(372,195)"/>
<path d="M0 0 C3.90156658 3.03455179 6.79575992 5.46906205 9 10 C9 10.66 9 11.32 9 12 C8.34 12 7.68 12 7 12 C7 11.34 7 10.68 7 10 C6.401875 9.938125 5.80375 9.87625 5.1875 9.8125 C2.05593552 8.64934748 1.38137992 6.96996683 0 4 C0 2.68 0 1.36 0 0 Z " fill="#E7955B" transform="translate(483,312)"/>
<path d="M0 0 C1 2 1 2 0.375 5.375 C-0.36735931 8.93555589 -0.36735931 8.93555589 1.4375 11.3125 C1.953125 11.869375 2.46875 12.42625 3 13 C3 13.66 3 14.32 3 15 C5.31 14.34 7.62 13.68 10 13 C9.67 13.99 9.34 14.98 9 16 C6.8125 16.8125 6.8125 16.8125 4 17 C1.43588292 14.84381063 -0.49549813 13.00900373 -2 10 C-2.35294118 3.52941176 -2.35294118 3.52941176 0 0 Z " fill="#202445" transform="translate(369,141)"/>
<path d="M0 0 C4.95 0.33 9.9 0.66 15 1 C14.67 1.66 14.34 2.32 14 3 C10.83984375 3.4140625 10.83984375 3.4140625 6.9375 3.625 C5.64714844 3.69976562 4.35679688 3.77453125 3.02734375 3.8515625 C2.02832031 3.90054687 1.02929688 3.94953125 0 4 C0 2.68 0 1.36 0 0 Z " fill="#E88E4C" transform="translate(34,357)"/>
<path d="M0 0 C0.33 0 0.66 0 1 0 C1.125 3.375 1.125 3.375 1 7 C-1 9 -1 9 -3.6875 9.25 C-7.41631117 8.96858029 -10.44647167 8.13712906 -14 7 C-14 6.34 -14 5.68 -14 5 C-12.56206608 5.31049726 -11.1246682 5.6234776 -9.6875 5.9375 C-8.88699219 6.11152344 -8.08648437 6.28554687 -7.26171875 6.46484375 C-5 7 -5 7 -2 8 C-2.33 6.35 -2.66 4.7 -3 3 C-2.01 3 -1.02 3 0 3 C0 2.01 0 1.02 0 0 Z " fill="#1B2144" transform="translate(396,176)"/>
<path d="M0 0 C3.375 -0.1875 3.375 -0.1875 7 0 C7.66 0.99 8.32 1.98 9 3 C8 4 8 4 5.93359375 4.09765625 C2.46679688 4.04882812 2.46679688 4.04882812 -1 4 C-1 6.97 -1 9.94 -1 13 C-1.33 13 -1.66 13 -2 13 C-2.19412181 11.52168779 -2.38012131 10.04230684 -2.5625 8.5625 C-2.66691406 7.73878906 -2.77132813 6.91507812 -2.87890625 6.06640625 C-2.91886719 5.38449219 -2.95882813 4.70257813 -3 4 C-2 3 -2 3 1.5625 2.9375 C2.696875 2.958125 3.83125 2.97875 5 3 C5 2.34 5 1.68 5 1 C3.35 1 1.7 1 0 1 C0 0.67 0 0.34 0 0 Z " fill="#191F3E" transform="translate(311,333)"/>
<path d="M0 0 C0.66 0 1.32 0 2 0 C3.13005694 3.5091242 2.98574145 6.53292935 2.6875 10.1875 C2.60886719 11.25355469 2.53023438 12.31960938 2.44921875 13.41796875 C2.30097656 14.27003906 2.15273438 15.12210937 2 16 C1.34 16.33 0.68 16.66 0 17 C0 11.39 0 5.78 0 0 Z " fill="#172359" transform="translate(277,328)"/>
<path d="M0 0 C0 3.73928499 -0.91959602 4.40902253 -3.375 7.125 C-4.31472656 8.18074219 -4.31472656 8.18074219 -5.2734375 9.2578125 C-7 11 -7 11 -9 12 C-7.125 7.125 -7.125 7.125 -6 6 C-6 5.01 -6 4.02 -6 3 C-4.02 2.01 -2.04 1.02 0 0 Z " fill="#1D224F" transform="translate(315,247)"/>
<path d="M0 0 C0.99 0.33 1.98 0.66 3 1 C2.34 1.804375 1.68 2.60875 1 3.4375 C-1.72209596 7.43438034 -1.37338272 11.33271604 -1 16 C-1.99 15.67 -2.98 15.34 -4 15 C-4.50610724 8.92671312 -3.04157942 5.22771463 0 0 Z " fill="#1A2045" transform="translate(413,220)"/>
<path d="M0 0 C0.99 0.33 1.98 0.66 3 1 C2.67 3.64 2.34 6.28 2 9 C1.01 9 0.02 9 -1 9 C-1.33 6.36 -1.66 3.72 -2 1 C-1.34 0.67 -0.68 0.34 0 0 Z " fill="#F89C3C" transform="translate(492,331)"/>
<path d="M0 0 C0.99 0 1.98 0 3 0 C2.125 5.75 2.125 5.75 1 8 C-0.65 7.67 -2.3 7.34 -4 7 C-3.67 6.01 -3.34 5.02 -3 4 C-2.01 4 -1.02 4 0 4 C0 2.68 0 1.36 0 0 Z " fill="#262951" transform="translate(233,323)"/>
<path d="M0 0 C-2.31 0.66 -4.62 1.32 -7 2 C-6.67 3.65 -6.34 5.3 -6 7 C-8.97 6.505 -8.97 6.505 -12 6 C-10.9200311 2.86809018 -9.99049526 1.99400788 -7.125 0.1875 C-4.02316031 -0.99119908 -2.9798555 -1.26070809 0 0 Z " fill="#1C254F" transform="translate(413,197)"/>
<path d="M0 0 C0.33 1.32 0.66 2.64 1 4 C1.66 4 2.32 4 3 4 C2.38461538 9.53846154 2.38461538 9.53846154 0.4375 11.875 C-0.036875 12.24625 -0.51125 12.6175 -1 13 C-1.07654536 8.48382401 -1.10228696 4.40914783 0 0 Z " fill="#E59157" transform="translate(490,336)"/>
<path d="M0 0 C-1.16273289 3.48819868 -1.78370053 4.3072108 -5 6 C-8.75 5.6875 -8.75 5.6875 -12 5 C-11 3 -11 3 -9.00390625 2.1484375 C-8.19824219 1.89320313 -7.39257812 1.63796875 -6.5625 1.375 C-5.75941406 1.11460937 -4.95632813 0.85421875 -4.12890625 0.5859375 C-2 0 -2 0 0 0 Z " fill="#1B224D" transform="translate(431,238)"/>
<path d="M0 0 C0.66 0 1.32 0 2 0 C1.28571429 8.57142857 1.28571429 8.57142857 -2 12 C-2.33 9.03 -2.66 6.06 -3 3 C-2.34 3 -1.68 3 -1 3 C-0.67 2.01 -0.34 1.02 0 0 Z " fill="#D8763C" transform="translate(95,208)"/>
<path d="M0 0 C0.99 0.33 1.98 0.66 3 1 C2.8864371 2.64666203 2.75882619 4.29236082 2.625 5.9375 C2.52058594 7.31228516 2.52058594 7.31228516 2.4140625 8.71484375 C2.27742187 9.46894531 2.14078125 10.22304688 2 11 C1.01 11.495 1.01 11.495 0 12 C0 8.04 0 4.08 0 0 Z " fill="#1A235C" transform="translate(211,328)"/>
<path d="M0 0 C1.32 0 2.64 0 4 0 C3.67 0.99 3.34 1.98 3 3 C-3.02232181 4.46619907 -7.90367577 5.32528788 -14 4 C-12 2 -12 2 -9.6875 1.875 C-7.89583333 1.95833333 -6.10416667 2.04166667 -4.3125 2.125 C-1.80221125 2.24748441 -1.80221125 2.24748441 0 0 Z " fill="#1E2244" transform="translate(347,261)"/>
<path d="M0 0 C5.00918744 1.47329042 7.51807722 4.27515238 11 8 C10.67 8.66 10.34 9.32 10 10 C7.96166576 8.7260411 5.96147874 7.38938077 4 6 C4 5.34 4 4.68 4 4 C3.34 4 2.68 4 2 4 C1.34 2.68 0.68 1.36 0 0 Z " fill="#CF773E" transform="translate(80,173)"/>
<path d="M0 0 C3.42230115 3.42230115 2.85895868 8.33281443 3 13 C2.82650748 15.4123722 2.47534734 17.62326328 2 20 C1.67 20 1.34 20 1 20 C0.92652344 18.30230469 0.92652344 18.30230469 0.8515625 16.5703125 C0.77653486 15.08851661 0.70098703 13.606747 0.625 12.125 C0.57859375 11.00544922 0.57859375 11.00544922 0.53125 9.86328125 C0.44356169 5.46526812 0.44356169 5.46526812 -2 2 C-1.34 1.34 -0.68 0.68 0 0 Z " fill="#1D244D" transform="translate(318,219)"/>
<path d="M0 0 C0.33 0 0.66 0 1 0 C1.33 3.96 1.66 7.92 2 12 C1.01 12 0.02 12 -1 12 C-1.02712066 10.56260487 -1.04645067 9.12506137 -1.0625 7.6875 C-1.07410156 6.88699219 -1.08570313 6.08648437 -1.09765625 5.26171875 C-1 3 -1 3 0 0 Z " fill="#242954" transform="translate(443,335)"/>
<path d="M0 0 C2.64 0.33 5.28 0.66 8 1 C8.33 1.99 8.66 2.98 9 4 C5.7 4 2.4 4 -1 4 C-0.67 2.68 -0.34 1.36 0 0 Z " fill="#22285B" transform="translate(107,334)"/>
<path d="M0 0 C0.99 0.33 1.98 0.66 3 1 C3 3.31 3 5.62 3 8 C2.34 8 1.68 8 1 8 C1 7.34 1 6.68 1 6 C-0.65 5.67 -2.3 5.34 -4 5 C-3.67 4.01 -3.34 3.02 -3 2 C-2.01 2 -1.02 2 0 2 C0 1.34 0 0.68 0 0 Z " fill="#192159" transform="translate(347,332)"/>
<path d="M0 0 C0.33 0.66 0.66 1.32 1 2 C3.52733235 2.65555119 3.52733235 2.65555119 6 3 C2.93882432 5.62386487 2.26826873 6 -2 6 C-2.33 5.01 -2.66 4.02 -3 3 C-3.66 2.67 -4.32 2.34 -5 2 C-3.35 1.34 -1.7 0.68 0 0 Z " fill="#1D2542" transform="translate(343,334)"/>
<path d="M0 0 C0 0.66 0 1.32 0 2 C-2.046875 3.4375 -2.046875 3.4375 -4.75 5 C-5.63171875 5.515625 -6.5134375 6.03125 -7.421875 6.5625 C-9.5901988 7.77150479 -11.76767294 8.91513077 -14 10 C-11.02160153 5.65650223 -5.69716881 0 0 0 Z " fill="#242848" transform="translate(270,196)"/>
<path d="M0 0 C1.17369141 -0.02513672 1.17369141 -0.02513672 2.37109375 -0.05078125 C5.02377163 0.38896749 5.885467 1.26878454 7.5625 3.3125 C1.41015625 3.41015625 1.41015625 3.41015625 -0.4375 3.3125 C-0.7675 2.9825 -1.0975 2.6525 -1.4375 2.3125 C-3.10367115 2.27186168 -4.77138095 2.269779 -6.4375 2.3125 C-4.02263057 -0.10236943 -3.31042211 0.0163075 0 0 Z " fill="#1A1D42" transform="translate(381.4375,162.6875)"/>
<path d="M0 0 C0.33 0.99 0.66 1.98 1 3 C2.65 3 4.3 3 6 3 C5.67 3.66 5.34 4.32 5 5 C0.94393835 4.53199289 -2.46588679 4.12046792 -6 2 C-5.38125 1.855625 -4.7625 1.71125 -4.125 1.5625 C-1.96741678 1.06847775 -1.96741678 1.06847775 0 0 Z " fill="#DA7038" transform="translate(206,260)"/>
<path d="M0 0 C0.515625 0.268125 1.03125 0.53625 1.5625 0.8125 C4.66401415 2.32349407 7.82262806 3.65572726 11 5 C10.67 5.66 10.34 6.32 10 7 C5.94718288 5.77472971 2.55639236 4.30119506 -1 2 C-0.67 1.34 -0.34 0.68 0 0 Z " fill="#1E244C" transform="translate(263,258)"/>
<path d="M0 0 C2.8125 -0.3125 2.8125 -0.3125 6 0 C8.27338765 2.6522856 8.95526736 4.32901036 9.1875 7.8125 C9.125625 8.534375 9.06375 9.25625 9 10 C7.5393715 7.35261084 7 6.10551666 7 3 C3.71303767 2.20046862 2.28976808 1.90341064 -1 3 C-0.67 2.01 -0.34 1.02 0 0 Z " fill="#1C1E4A" transform="translate(386,140)"/>
<path d="M0 0 C0.33 0 0.66 0 1 0 C1 3.63 1 7.26 1 11 C0.34 11 -0.32 11 -1 11 C-1.22174933 9.54364629 -1.42698698 8.08477044 -1.625 6.625 C-1.74101562 5.81289063 -1.85703125 5.00078125 -1.9765625 4.1640625 C-1.98429687 3.44992187 -1.99203125 2.73578125 -2 2 C-1.34 1.34 -0.68 0.68 0 0 Z " fill="#162457" transform="translate(432,333)"/>
<path d="M0 0 C0.66 0 1.32 0 2 0 C7 5.47619048 7 5.47619048 7 8 C7.66 8 8.32 8 9 8 C8.67 8.99 8.34 9.98 8 11 C6.84852339 9.73427767 5.70400686 8.46222094 4.5625 7.1875 C3.92441406 6.47980469 3.28632813 5.77210938 2.62890625 5.04296875 C1 3 1 3 0 0 Z " fill="#1C1F45" transform="translate(391,247)"/>
<path d="M0 0 C1 3 1 3 1 5 C-0.98 5 -2.96 5 -5 5 C-5 4.01 -5 3.02 -5 2 C-3.35 1.34 -1.7 0.68 0 0 Z " fill="#1B2041" transform="translate(221,342)"/>
<path d="M0 0 C1.65 0 3.3 0 5 0 C5.33 1.65 5.66 3.3 6 5 C3.83125748 4.49396008 2.00032373 4.00016187 0 3 C0 2.01 0 1.02 0 0 Z " fill="#F29C4F" transform="translate(478,311)"/>
<path d="M0 0 C0.33 1.32 0.66 2.64 1 4 C1.66 4 2.32 4 3 4 C3 3.34 3 2.68 3 2 C3.66 2 4.32 2 5 2 C4.67 3.32 4.34 4.64 4 6 C1.69 5.67 -0.62 5.34 -3 5 C-2.01 3.35 -1.02 1.7 0 0 Z " fill="#E17238" transform="translate(217,214)"/>
<path d="M0 0 C1.21236328 0.01353516 1.21236328 0.01353516 2.44921875 0.02734375 C3.37154297 0.04474609 3.37154297 0.04474609 4.3125 0.0625 C4.3125 0.3925 4.3125 0.7225 4.3125 1.0625 C2.6625 1.0625 1.0125 1.0625 -0.6875 1.0625 C-0.6875 1.7225 -0.6875 2.3825 -0.6875 3.0625 C-1.6775 3.3925 -2.6675 3.7225 -3.6875 4.0625 C-5.875 2.625 -5.875 2.625 -7.6875 1.0625 C-4.80538698 0.10179566 -2.98899956 -0.04331883 0 0 Z " fill="#1C204B" transform="translate(367.6875,193.9375)"/>
<path d="M0 0 C0.33 0.66 0.66 1.32 1 2 C1.66 2 2.32 2 3 2 C3 3.32 3 4.64 3 6 C4.65 6.33 6.3 6.66 8 7 C6.02 7.99 6.02 7.99 4 9 C0 4.5 0 4.5 0 0 Z " fill="#171C3B" transform="translate(391,161)"/>
<path d="M0 0 C0.66 0 1.32 0 2 0 C2 0.99 2 1.98 2 3 C3.32 3.33 4.64 3.66 6 4 C5.67 4.99 5.34 5.98 5 7 C3.68 6.67 2.36 6.34 1 6 C0.67 4.02 0.34 2.04 0 0 Z " fill="#1B1E43" transform="translate(158,340)"/>
<path d="M0 0 C0.99 0 1.98 0 3 0 C3.33 2.31 3.66 4.62 4 7 C3.01 7.495 3.01 7.495 2 8 C0.26216175 5.39324263 -0.50215905 3.98704569 -1 1 C-0.67 0.67 -0.34 0.34 0 0 Z " fill="#171D3E" transform="translate(442,333)"/>
<path d="M0 0 C0.66 0 1.32 0 2 0 C2 0.66 2 1.32 2 2 C3.98 2 5.96 2 8 2 C5.08235 3.9451 3.37462715 4.45276317 0 5 C0 3.35 0 1.7 0 0 Z " fill="#1C2A58" transform="translate(211,341)"/>
<path d="M0 0 C0.99 0.33 1.98 0.66 3 1 C3 3.31 3 5.62 3 8 C2.34 8 1.68 8 1 8 C-0.35439668 5.29120665 -0.06501451 2.99066732 0 0 Z " fill="#1C2355" transform="translate(81,339)"/>
<path d="M0 0 C1.32 0 2.64 0 4 0 C3.67 1.65 3.34 3.3 3 5 C1.68 4.34 0.36 3.68 -1 3 C-0.67 2.01 -0.34 1.02 0 0 Z " fill="#252747" transform="translate(246,320)"/>
<path d="M0 0 C3.76607955 1.25535985 4.26441793 2.52883585 6 6 C6 6.99 6 7.98 6 9 C5.34 9 4.68 9 4 9 C3.896875 8.360625 3.79375 7.72125 3.6875 7.0625 C3.460625 6.381875 3.23375 5.70125 3 5 C2.01 4.67 1.02 4.34 0 4 C0 2.68 0 1.36 0 0 Z " fill="#D87038" transform="translate(163,243)"/>
<path d="M0 0 C-0.33 0.66 -0.66 1.32 -1 2 C-3.06640625 2.6328125 -3.06640625 2.6328125 -5.5625 3.125 C-6.80193359 3.37636719 -6.80193359 3.37636719 -8.06640625 3.6328125 C-8.70449219 3.75398437 -9.34257813 3.87515625 -10 4 C-10 3.34 -10 2.68 -10 2 C-6.49223216 0.39644899 -3.85645121 -0.22036864 0 0 Z " fill="#D97A42" transform="translate(134,194)"/>
<path d="M0 0 C3.0916909 2.52956528 3.90931332 5.22454612 5 9 C3.68 9 2.36 9 1 9 C1.33 7.35 1.66 5.7 2 4 C1.34 4 0.68 4 0 4 C0 2.68 0 1.36 0 0 Z " fill="#D5753D" transform="translate(91,183)"/>
<path d="M0 0 C2.475 0.495 2.475 0.495 5 1 C5.33 2.32 5.66 3.64 6 5 C4.125 4.75 4.125 4.75 2 4 C0.75 1.9375 0.75 1.9375 0 0 Z " fill="#1F1E55" transform="translate(329,342)"/>
<path d="M0 0 C0.33 0 0.66 0 1 0 C1.12375 1.134375 1.2475 2.26875 1.375 3.4375 C1.58125 4.613125 1.7875 5.78875 2 7 C2.66 7.33 3.32 7.66 4 8 C4 9.32 4 10.64 4 12 C3.34 12 2.68 12 2 12 C-0.60018816 8.09971775 -0.15085514 4.52565431 0 0 Z " fill="#27274D" transform="translate(101,333)"/>
<path d="M0 0 C0.99 0 1.98 0 3 0 C3 2.31 3 4.62 3 7 C2.01 7 1.02 7 0 7 C0 4.69 0 2.38 0 0 Z " fill="#131436" transform="translate(357,334)"/>
<path d="M0 0 C0.33 0 0.66 0 1 0 C1.06058594 0.83144531 1.12117188 1.66289062 1.18359375 2.51953125 C1.26738281 3.60621094 1.35117187 4.69289063 1.4375 5.8125 C1.51871094 6.89144531 1.59992188 7.97039062 1.68359375 9.08203125 C1.90212461 12.05989905 1.90212461 12.05989905 3 15 C2.01 14.67 1.02 14.34 0 14 C0 9.38 0 4.76 0 0 Z " fill="#24294A" transform="translate(306,332)"/>
<path d="M0 0 C0.66 0 1.32 0 2 0 C2.625 1.875 2.625 1.875 3 4 C2.34 4.66 1.68 5.32 1 6 C1 5.34 1 4.68 1 4 C-1.31 4 -3.62 4 -6 4 C-6 3.67 -6 3.34 -6 3 C-4.02 3 -2.04 3 0 3 C0 2.01 0 1.02 0 0 Z " fill="#0E1751" transform="translate(114,331)"/>
<path d="M0 0 C1.98 0.495 1.98 0.495 4 1 C3.34 2.32 2.68 3.64 2 5 C1.01 5 0.02 5 -1 5 C-0.67 3.35 -0.34 1.7 0 0 Z " fill="#1B1F59" transform="translate(373,328)"/>
<path d="M0 0 C1.98 0 3.96 0 6 0 C6 0.99 6 1.98 6 3 C3.69 3 1.38 3 -1 3 C-0.67 2.01 -0.34 1.02 0 0 Z " fill="#181C56" transform="translate(360,328)"/>
<path d="M0 0 C0.99 0 1.98 0 3 0 C3 1.98 3 3.96 3 6 C2.01 6 1.02 6 0 6 C0 4.02 0 2.04 0 0 Z " fill="#F09D4E" transform="translate(14,326)"/>
<path d="M0 0 C0.33 0.99 0.66 1.98 1 3 C-1.64 3.33 -4.28 3.66 -7 4 C-7 3.34 -7 2.68 -7 2 C-4.35261084 0.5393715 -3.10551666 0 0 0 Z " fill="#1B2045" transform="translate(379,319)"/>
<path d="M0 0 C0.33 0.66 0.66 1.32 1 2 C-0.98 4.31 -2.96 6.62 -5 9 C-5 6 -5 6 -4 3 C-3.01 3 -2.02 3 -1 3 C-0.67 2.01 -0.34 1.02 0 0 Z " fill="#D37B43" transform="translate(92,220)"/>
<path d="M0 0 C1.98 0.495 1.98 0.495 4 1 C3.67 2.65 3.34 4.3 3 6 C1.68 4.68 0.36 3.36 -1 2 C-0.67 1.34 -0.34 0.68 0 0 Z " fill="#F09A57" transform="translate(16,345)"/>
<path d="M0 0 C1.98 0 3.96 0 6 0 C5.67 0.99 5.34 1.98 5 3 C3.35 3.33 1.7 3.66 0 4 C0 2.68 0 1.36 0 0 Z " fill="#D8773D" transform="translate(214,195)"/>
<path d="M0 0 C0.66 0.33 1.32 0.66 2 1 C2 1.99 2 2.98 2 4 C1.01 3.67 0.02 3.34 -1 3 C-0.67 2.01 -0.34 1.02 0 0 Z " fill="#000000" transform="translate(152,331)"/>
<path d="" fill="#000000" transform="translate(0,0)"/>
</svg>
